<?xml version="1.0" encoding="UTF-8" standalone="no"?>
<!DOCTYPE svg PUBLIC "-//W3C//DTD SVG 1.1//EN"
 "http://www.w3.org/Graphics/SVG/1.1/DTD/svg11.dtd">
<!-- Generated by graphviz version 2.38.0 (20140413.2041)
 -->
<!-- Title: %3 Pages: 1 -->
<svg width="179pt" height="386pt"
 viewBox="0.00 0.00 178.77 386.00" xmlns="http://www.w3.org/2000/svg" xmlns:xlink="http://www.w3.org/1999/xlink">
<g id="graph0" class="graph" transform="scale(1 1) rotate(0) translate(4 382)">
<title>%3</title>
<polygon fill="white" stroke="none" points="-4,4 -4,-382 174.771,-382 174.771,4 -4,4"/>
<!-- fake -->
<g id="node1" class="node"><title>fake</title>
</g>
<!-- 0 -->
<g id="node2" class="node"><title>0</title>
<ellipse fill="none" stroke="black" cx="34.7711" cy="-287" rx="27" ry="18"/>
<text text-anchor="middle" x="34.7711" y="-283.3" font-family="Times,serif" font-size="14.00">0</text>
</g>
<!-- fake&#45;&gt;0 -->
<g id="edge1" class="edge"><title>fake&#45;&gt;0</title>
<path fill="none" stroke="black" stroke-width="2" d="M34.7711,-341.813C34.7711,-333.789 34.7711,-324.047 34.7711,-315.069"/>
<polygon fill="black" stroke="black" stroke-width="2" points="38.2712,-315.029 34.7711,-305.029 31.2712,-315.029 38.2712,-315.029"/>
</g>
<!-- 0&#45;&gt;0 -->
<g id="edge4" class="edge"><title>0&#45;&gt;0</title>
<path fill="none" stroke="black" d="M60.2145,-293.691C70.7989,-294.152 79.7711,-291.922 79.7711,-287 79.7711,-283.77 75.9071,-281.699 70.2592,-280.788"/>
<polygon fill="black" stroke="black" points="70.3697,-277.289 60.2145,-280.309 70.0367,-284.281 70.3697,-277.289"/>
<text text-anchor="middle" x="91.7711" y="-283.3" font-family="Times,serif" font-size="14.00">{A}</text>
</g>
<!-- 1 -->
<g id="node3" class="node"><title>1</title>
<ellipse fill="none" stroke="black" cx="40.7711" cy="-22" rx="18" ry="18"/>
<ellipse fill="none" stroke="black" cx="40.7711" cy="-22" rx="22" ry="22"/>
<text text-anchor="middle" x="40.7711" y="-18.3" font-family="Times,serif" font-size="14.00">1</text>
</g>
<!-- 0&#45;&gt;1 -->
<g id="edge2" class="edge"><title>0&#45;&gt;1</title>
<path fill="none" stroke="black" d="M27.9113,-269.485C15.0108,-236.18 -10.2672,-158.703 4.77106,-95 8.51752,-79.1297 16.3273,-62.7692 23.7182,-49.6622"/>
<polygon fill="black" stroke="black" points="26.909,-51.1408 28.9618,-40.7467 20.8753,-47.592 26.909,-51.1408"/>
<text text-anchor="middle" x="13.7711" y="-152.8" font-family="Times,serif" font-size="14.00">{D}</text>
</g>
<!-- 2 -->
<g id="node4" class="node"><title>2</title>
<ellipse fill="none" stroke="black" cx="40.7711" cy="-113" rx="27" ry="18"/>
<text text-anchor="middle" x="40.7711" y="-109.3" font-family="Times,serif" font-size="14.00">2</text>
</g>
<!-- 0&#45;&gt;2 -->
<g id="edge3" class="edge"><title>0&#45;&gt;2</title>
<path fill="none" stroke="black" d="M35.3683,-268.879C36.4106,-239.001 38.5694,-177.113 39.8197,-141.274"/>
<polygon fill="black" stroke="black" points="43.3254,-141.168 40.1762,-131.052 36.3296,-140.923 43.3254,-141.168"/>
<text text-anchor="middle" x="49.2711" y="-196.3" font-family="Times,serif" font-size="14.00">{C}</text>
</g>
<!-- 3 -->
<g id="node5" class="node"><title>3</title>
<ellipse fill="none" stroke="black" cx="102.771" cy="-200" rx="27" ry="18"/>
<text text-anchor="middle" x="102.771" y="-196.3" font-family="Times,serif" font-size="14.00">3</text>
</g>
<!-- 0&#45;&gt;3 -->
<g id="edge5" class="edge"><title>0&#45;&gt;3</title>
<path fill="none" stroke="black" d="M46.9281,-270.804C57.2109,-257.95 72.1161,-239.319 83.9415,-224.537"/>
<polygon fill="black" stroke="black" points="86.9761,-226.346 90.49,-216.351 81.51,-221.974 86.9761,-226.346"/>
<text text-anchor="middle" x="84.2711" y="-239.8" font-family="Times,serif" font-size="14.00">{B}</text>
</g>
<!-- 2&#45;&gt;1 -->
<g id="edge6" class="edge"><title>2&#45;&gt;1</title>
<path fill="none" stroke="black" d="M40.7711,-94.8399C40.7711,-83.4407 40.7711,-68.1336 40.7711,-54.5781"/>
<polygon fill="black" stroke="black" points="44.2712,-54.1905 40.7711,-44.1905 37.2712,-54.1906 44.2712,-54.1905"/>
<text text-anchor="middle" x="52.7711" y="-65.8" font-family="Times,serif" font-size="14.00">{D}</text>
</g>
<!-- 2&#45;&gt;2 -->
<g id="edge7" class="edge"><title>2&#45;&gt;2</title>
<path fill="none" stroke="black" d="M65.3035,-120.752C76.2789,-121.49 85.7711,-118.906 85.7711,-113 85.7711,-109.032 81.4861,-106.563 75.3454,-105.594"/>
<polygon fill="black" stroke="black" points="75.4183,-102.095 65.3035,-105.248 75.1769,-109.091 75.4183,-102.095"/>
<text text-anchor="middle" x="97.2711" y="-109.3" font-family="Times,serif" font-size="14.00">{C}</text>
</g>
<!-- 3&#45;&gt;1 -->
<g id="edge8" class="edge"><title>3&#45;&gt;1</title>
<path fill="none" stroke="black" d="M110.441,-182.422C119.068,-161.267 130.336,-123.95 117.771,-95 107.627,-71.6269 85.7439,-52.3819 67.8896,-39.6875"/>
<polygon fill="black" stroke="black" points="69.7545,-36.7231 59.5175,-33.9926 65.8174,-42.511 69.7545,-36.7231"/>
<text text-anchor="middle" x="134.771" y="-109.3" font-family="Times,serif" font-size="14.00">{D}</text>
</g>
<!-- 3&#45;&gt;2 -->
<g id="edge9" class="edge"><title>3&#45;&gt;2</title>
<path fill="none" stroke="black" d="M91.3993,-183.41C82.0478,-170.589 68.6482,-152.219 57.983,-137.597"/>
<polygon fill="black" stroke="black" points="60.7915,-135.508 52.0707,-129.491 55.1361,-139.633 60.7915,-135.508"/>
<text text-anchor="middle" x="86.2711" y="-152.8" font-family="Times,serif" font-size="14.00">{C}</text>
</g>
<!-- 3&#45;&gt;3 -->
<g id="edge10" class="edge"><title>3&#45;&gt;3</title>
<path fill="none" stroke="black" d="M127.304,-207.752C138.279,-208.49 147.771,-205.906 147.771,-200 147.771,-196.032 143.486,-193.563 137.345,-192.594"/>
<polygon fill="black" stroke="black" points="137.418,-189.095 127.304,-192.248 137.177,-196.091 137.418,-189.095"/>
<text text-anchor="middle" x="159.271" y="-196.3" font-family="Times,serif" font-size="14.00">{B}</text>
</g>
</g>
</svg>
