<?xml version="1.0" encoding="UTF-8" standalone="no"?>
<!DOCTYPE svg PUBLIC "-//W3C//DTD SVG 1.1//EN"
 "http://www.w3.org/Graphics/SVG/1.1/DTD/svg11.dtd">
<!-- Generated by graphviz version 2.38.0 (20140413.2041)
 -->
<!-- Title: %3 Pages: 1 -->
<svg width="3256pt" height="479pt"
 viewBox="0.00 0.00 3256.00 479.45" xmlns="http://www.w3.org/2000/svg" xmlns:xlink="http://www.w3.org/1999/xlink">
<g id="graph0" class="graph" transform="scale(1 1) rotate(0) translate(4 475.448)">
<title>%3</title>
<polygon fill="white" stroke="none" points="-4,4 -4,-475.448 3252,-475.448 3252,4 -4,4"/>
<!-- fake -->
<g id="node1" class="node"><title>fake</title>
</g>
<!-- 0 -->
<g id="node2" class="node"><title>0</title>
<ellipse fill="none" stroke="black" cx="541" cy="-380.448" rx="27" ry="18"/>
<text text-anchor="middle" x="541" y="-376.748" font-family="Times,serif" font-size="14.00">0</text>
</g>
<!-- fake&#45;&gt;0 -->
<g id="edge1" class="edge"><title>fake&#45;&gt;0</title>
<path fill="none" stroke="black" stroke-width="2" d="M541,-435.261C541,-427.237 541,-417.495 541,-408.517"/>
<polygon fill="black" stroke="black" stroke-width="2" points="544.5,-408.476 541,-398.476 537.5,-408.477 544.5,-408.476"/>
</g>
<!-- 0&#45;&gt;0 -->
<g id="edge16" class="edge"><title>0&#45;&gt;0</title>
<path fill="none" stroke="black" d="M566.443,-387.138C577.028,-387.6 586,-385.37 586,-380.448 586,-377.218 582.136,-375.147 576.488,-374.235"/>
<polygon fill="black" stroke="black" points="576.599,-370.737 566.443,-373.757 576.266,-377.729 576.599,-370.737"/>
<text text-anchor="middle" x="598" y="-376.748" font-family="Times,serif" font-size="14.00">{A}</text>
</g>
<!-- 1 -->
<g id="node3" class="node"><title>1</title>
<ellipse fill="none" stroke="black" cx="1319" cy="-293.448" rx="27" ry="18"/>
<text text-anchor="middle" x="1319" y="-289.748" font-family="Times,serif" font-size="14.00">1</text>
</g>
<!-- 0&#45;&gt;1 -->
<g id="edge15" class="edge"><title>0&#45;&gt;1</title>
<path fill="none" stroke="black" d="M567.847,-377.375C630.934,-372.429 793.521,-359.237 929,-344.448 1059.38,-330.214 1213.74,-309.181 1282.64,-299.573"/>
<polygon fill="black" stroke="black" points="1283.14,-303.037 1292.56,-298.186 1282.17,-296.104 1283.14,-303.037"/>
<text text-anchor="middle" x="1059.5" y="-333.248" font-family="Times,serif" font-size="14.00">{B}</text>
</g>
<!-- 2 -->
<g id="node4" class="node"><title>2</title>
<ellipse fill="none" stroke="black" cx="1933" cy="-115.448" rx="18" ry="18"/>
<ellipse fill="none" stroke="black" cx="1933" cy="-115.448" rx="22" ry="22"/>
<text text-anchor="middle" x="1933" y="-111.748" font-family="Times,serif" font-size="14.00">2</text>
</g>
<!-- 0&#45;&gt;2 -->
<g id="edge3" class="edge"><title>0&#45;&gt;2</title>
<path fill="none" stroke="black" d="M568.326,-379.852C675.366,-380.895 1075.99,-379.745 1396,-311.448 1471.05,-295.431 1487.65,-283.021 1560,-257.448 1688.61,-211.991 1840.2,-152.982 1903.22,-128.21"/>
<polygon fill="black" stroke="black" points="1904.87,-131.318 1912.9,-124.399 1902.31,-124.805 1904.87,-131.318"/>
<text text-anchor="middle" x="1611" y="-246.248" font-family="Times,serif" font-size="14.00">{D}</text>
</g>
<!-- 3 -->
<g id="node5" class="node"><title>3</title>
<ellipse fill="none" stroke="black" cx="2731" cy="-206.448" rx="27" ry="18"/>
<text text-anchor="middle" x="2731" y="-202.748" font-family="Times,serif" font-size="14.00">3</text>
</g>
<!-- 0&#45;&gt;3 -->
<g id="edge11" class="edge"><title>0&#45;&gt;3</title>
<path fill="none" stroke="black" d="M567.962,-379.162C729.134,-377.386 1566.84,-367.183 1823,-344.448 2165.16,-314.079 2574.59,-237.778 2695.66,-214.379"/>
<polygon fill="black" stroke="black" points="2696.35,-217.81 2705.5,-212.47 2695.02,-210.938 2696.35,-217.81"/>
<text text-anchor="middle" x="2354.5" y="-289.748" font-family="Times,serif" font-size="14.00">{C}</text>
</g>
<!-- sink -->
<g id="node6" class="node"><title>sink</title>
<ellipse fill="none" stroke="black" cx="1660" cy="-24.4476" rx="27" ry="18"/>
<text text-anchor="middle" x="1660" y="-20.7476" font-family="Times,serif" font-size="14.00">sink</text>
</g>
<!-- 0&#45;&gt;sink -->
<g id="edge2" class="edge"><title>0&#45;&gt;sink</title>
<path fill="none" stroke="black" d="M514.07,-379.112C428.024,-377.773 160.606,-371.486 79,-344.448 39.556,-331.379 0,-336 0,-294.448 0,-294.448 0,-294.448 0,-114.448 0,-71.9178 38.5086,-73.4568 79,-60.4476 154.784,-36.0997 1391.07,-27.1406 1622.75,-25.6718"/>
<polygon fill="black" stroke="black" points="1623.03,-29.1701 1633.01,-25.6074 1622.99,-22.1703 1623.03,-29.1701"/>
<text text-anchor="middle" x="28.5" y="-202.748" font-family="Times,serif" font-size="14.00">{B, C, D}</text>
</g>
<!-- 0&#45;&gt;sink -->
<g id="edge4" class="edge"><title>0&#45;&gt;sink</title>
<path fill="none" stroke="black" d="M513.984,-380.094C417.126,-381.701 93,-380.639 93,-294.448 93,-294.448 93,-294.448 93,-114.448 93,-77.9058 120.93,-73.6582 155,-60.4476 225.465,-33.1254 1397.56,-26.6022 1622.75,-25.5988"/>
<polygon fill="black" stroke="black" points="1623.05,-29.0976 1633.04,-25.5539 1623.02,-22.0977 1623.05,-29.0976"/>
<text text-anchor="middle" x="113" y="-202.748" font-family="Times,serif" font-size="14.00">{C, D}</text>
</g>
<!-- 0&#45;&gt;sink -->
<g id="edge5" class="edge"><title>0&#45;&gt;sink</title>
<path fill="none" stroke="black" d="M513.947,-379.052C428.343,-377.077 169,-365.25 169,-294.448 169,-294.448 169,-294.448 169,-114.448 169,-77.9058 196.938,-73.6793 231,-60.4476 297.681,-34.5449 1403.8,-26.908 1622.58,-25.6479"/>
<polygon fill="black" stroke="black" points="1622.91,-29.1461 1632.89,-25.5894 1622.87,-22.1462 1622.91,-29.1461"/>
<text text-anchor="middle" x="189" y="-202.748" font-family="Times,serif" font-size="14.00">{B, C}</text>
</g>
<!-- 0&#45;&gt;sink -->
<g id="edge6" class="edge"><title>0&#45;&gt;sink</title>
<path fill="none" stroke="black" d="M513.774,-379.915C468.787,-379.716 376.962,-375.152 307,-344.448 274.585,-330.221 245,-329.847 245,-294.448 245,-294.448 245,-294.448 245,-114.448 245,-77.9058 272.947,-73.7027 307,-60.4476 369.921,-35.956 1410.81,-27.2277 1622.58,-25.7015"/>
<polygon fill="black" stroke="black" points="1622.89,-29.1995 1632.86,-25.6284 1622.84,-22.1997 1622.89,-29.1995"/>
<text text-anchor="middle" x="265" y="-202.748" font-family="Times,serif" font-size="14.00">{B, D}</text>
</g>
<!-- 0&#45;&gt;sink -->
<g id="edge7" class="edge"><title>0&#45;&gt;sink</title>
<path fill="none" stroke="black" d="M513.759,-380.343C475.701,-380.324 405.812,-375.554 357,-344.448 333.908,-329.732 321,-321.831 321,-294.448 321,-294.448 321,-294.448 321,-114.448 321,-85.6032 331.754,-74.3984 357,-60.4476 413.823,-29.0481 1416.05,-25.818 1622.86,-25.4857"/>
<polygon fill="black" stroke="black" points="1622.92,-28.9858 1632.91,-25.4709 1622.91,-21.9858 1622.92,-28.9858"/>
<text text-anchor="middle" x="328" y="-202.748" font-family="Times,serif" font-size="14.00">{}</text>
</g>
<!-- 0&#45;&gt;sink -->
<g id="edge8" class="edge"><title>0&#45;&gt;sink</title>
<path fill="none" stroke="black" d="M514.063,-378.013C466.128,-373.853 371,-357.638 371,-294.448 371,-294.448 371,-294.448 371,-114.448 371,-77.9058 398.965,-73.7479 433,-60.4476 489.705,-38.2887 1423.09,-27.7994 1622.65,-25.8044"/>
<polygon fill="black" stroke="black" points="1622.94,-29.3017 1632.91,-25.7029 1622.87,-22.3021 1622.94,-29.3017"/>
<text text-anchor="middle" x="391" y="-202.748" font-family="Times,serif" font-size="14.00">{B, A}</text>
</g>
<!-- 0&#45;&gt;sink -->
<g id="edge9" class="edge"><title>0&#45;&gt;sink</title>
<path fill="none" stroke="black" d="M518.245,-370.655C490.426,-358.241 447,-332.731 447,-294.448 447,-294.448 447,-294.448 447,-114.448 447,-71.5501 486.178,-73.6285 527,-60.4476 633.039,-26.2095 1438.28,-25.1582 1622.53,-25.3708"/>
<polygon fill="black" stroke="black" points="1622.78,-28.871 1632.79,-25.3847 1622.79,-21.871 1622.78,-28.871"/>
<text text-anchor="middle" x="476" y="-202.748" font-family="Times,serif" font-size="14.00">{B, A, D}</text>
</g>
<!-- 0&#45;&gt;sink -->
<g id="edge10" class="edge"><title>0&#45;&gt;sink</title>
<path fill="none" stroke="black" d="M541,-362.191C541,-345.018 541,-317.911 541,-294.448 541,-294.448 541,-294.448 541,-114.448 541,-71.5501 580.196,-73.6854 621,-60.4476 717.637,-29.0963 1448.03,-25.8188 1622.61,-25.4841"/>
<polygon fill="black" stroke="black" points="1622.84,-28.9838 1632.83,-25.4667 1622.82,-21.9838 1622.84,-28.9838"/>
<text text-anchor="middle" x="570" y="-202.748" font-family="Times,serif" font-size="14.00">{A, C, D}</text>
</g>
<!-- 0&#45;&gt;sink -->
<g id="edge12" class="edge"><title>0&#45;&gt;sink</title>
<path fill="none" stroke="black" d="M563.755,-370.655C591.574,-358.241 635,-332.731 635,-294.448 635,-294.448 635,-294.448 635,-114.448 635,-71.9178 673.606,-73.757 714,-60.4476 801.253,-31.6986 1457.73,-26.4694 1622.55,-25.6062"/>
<polygon fill="black" stroke="black" points="1622.7,-29.1056 1632.68,-25.5554 1622.67,-22.1056 1622.7,-29.1056"/>
<text text-anchor="middle" x="663.5" y="-202.748" font-family="Times,serif" font-size="14.00">{B, A, C}</text>
</g>
<!-- 0&#45;&gt;sink -->
<g id="edge13" class="edge"><title>0&#45;&gt;sink</title>
<path fill="none" stroke="black" d="M568.191,-379.097C620.055,-376.84 728,-363.81 728,-294.448 728,-294.448 728,-294.448 728,-114.448 728,-65.4942 776.914,-73.8405 824,-60.4476 901.35,-38.4468 1470.38,-28.3198 1622.63,-25.9863"/>
<polygon fill="black" stroke="black" points="1622.91,-29.4825 1632.85,-25.8317 1622.8,-22.4833 1622.91,-29.4825"/>
<text text-anchor="middle" x="765" y="-202.748" font-family="Times,serif" font-size="14.00">{B, A, D, C}</text>
</g>
<!-- 0&#45;&gt;sink -->
<g id="edge14" class="edge"><title>0&#45;&gt;sink</title>
<path fill="none" stroke="black" d="M567.881,-377.529C640.99,-371.58 838,-350.36 838,-294.448 838,-294.448 838,-294.448 838,-114.448 838,-88.184 840.297,-75.2382 862,-60.4476 893.754,-38.8073 1468.89,-28.4007 1622.53,-25.9993"/>
<polygon fill="black" stroke="black" points="1622.91,-29.494 1632.85,-25.8402 1622.8,-22.4949 1622.91,-29.494"/>
<text text-anchor="middle" x="858.5" y="-202.748" font-family="Times,serif" font-size="14.00">{A, D}</text>
</g>
<!-- 0&#45;&gt;sink -->
<g id="edge17" class="edge"><title>0&#45;&gt;sink</title>
<path fill="none" stroke="black" d="M568.342,-380.202C617.552,-380.624 723.496,-377.217 805,-344.448 828.011,-335.196 834.985,-331.187 850,-311.448 910.985,-231.275 861.062,-180.351 912,-93.4476 923.143,-74.4378 928.609,-68.7996 949,-60.4476 1011.49,-34.8527 1485.5,-27.4501 1622.83,-25.8322"/>
<polygon fill="black" stroke="black" points="1622.9,-29.3317 1632.86,-25.7173 1622.82,-22.3322 1622.9,-29.3317"/>
<text text-anchor="middle" x="906" y="-202.748" font-family="Times,serif" font-size="14.00">{A, C}</text>
</g>
<!-- 1&#45;&gt;1 -->
<g id="edge31" class="edge"><title>1&#45;&gt;1</title>
<path fill="none" stroke="black" d="M1343.53,-301.2C1354.51,-301.938 1364,-299.354 1364,-293.448 1364,-289.479 1359.72,-287.011 1353.57,-286.042"/>
<polygon fill="black" stroke="black" points="1353.65,-282.543 1343.53,-285.696 1353.41,-289.538 1353.65,-282.543"/>
<text text-anchor="middle" x="1375.5" y="-289.748" font-family="Times,serif" font-size="14.00">{B}</text>
</g>
<!-- 1&#45;&gt;2 -->
<g id="edge19" class="edge"><title>1&#45;&gt;2</title>
<path fill="none" stroke="black" d="M1345.99,-291.997C1446.33,-290.134 1794.23,-281.951 1837,-257.448 1880.38,-232.593 1908.3,-179.194 1922.28,-145.712"/>
<polygon fill="black" stroke="black" points="1925.53,-147.009 1926.01,-136.425 1919.04,-144.397 1925.53,-147.009"/>
<text text-anchor="middle" x="1912" y="-202.748" font-family="Times,serif" font-size="14.00">{D}</text>
</g>
<!-- 1&#45;&gt;3 -->
<g id="edge27" class="edge"><title>1&#45;&gt;3</title>
<path fill="none" stroke="black" d="M1346,-290.912C1430.74,-286.087 1698.93,-270.757 1921,-257.448 2219.34,-239.567 2579.42,-216.988 2694.07,-209.774"/>
<polygon fill="black" stroke="black" points="2694.32,-213.266 2704.08,-209.144 2693.88,-206.279 2694.32,-213.266"/>
<text text-anchor="middle" x="2176.5" y="-246.248" font-family="Times,serif" font-size="14.00">{C}</text>
</g>
<!-- 1&#45;&gt;sink -->
<g id="edge18" class="edge"><title>1&#45;&gt;sink</title>
<path fill="none" stroke="black" d="M1292.01,-292.232C1225.36,-291.26 1054.88,-285.975 1007,-257.448 974.908,-238.326 988.569,-211.279 959,-188.448 940.636,-174.268 923.279,-189.472 910,-170.448 906.184,-164.981 908.03,-161.817 910,-155.448 925.12,-106.574 930.373,-85.4626 975,-60.4476 1031.57,-28.7369 1487.91,-25.6507 1622.67,-25.4351"/>
<polygon fill="black" stroke="black" points="1622.9,-28.935 1632.89,-25.4234 1622.89,-21.935 1622.9,-28.935"/>
<text text-anchor="middle" x="938.5" y="-159.248" font-family="Times,serif" font-size="14.00">{B, C, D}</text>
</g>
<!-- 1&#45;&gt;sink -->
<g id="edge20" class="edge"><title>1&#45;&gt;sink</title>
<path fill="none" stroke="black" d="M1291.67,-291.867C1230.66,-290.114 1085.55,-283.271 1045,-257.448 971.101,-210.388 964.697,-108.43 1038,-60.4476 1086.85,-28.4714 1495.82,-25.5367 1622.64,-25.4015"/>
<polygon fill="black" stroke="black" points="1622.66,-28.9015 1632.66,-25.3961 1622.66,-21.9016 1622.66,-28.9015"/>
<text text-anchor="middle" x="1008" y="-159.248" font-family="Times,serif" font-size="14.00">{C, D}</text>
</g>
<!-- 1&#45;&gt;sink -->
<g id="edge21" class="edge"><title>1&#45;&gt;sink</title>
<path fill="none" stroke="black" d="M1292.19,-291.047C1240.92,-287.908 1131.41,-278.837 1101,-257.448 1029.38,-207.081 1027.89,-108.631 1101,-60.4476 1144.35,-31.8748 1504.47,-26.6166 1622.62,-25.6586"/>
<polygon fill="black" stroke="black" points="1622.98,-29.156 1632.96,-25.5808 1622.93,-22.1562 1622.98,-29.156"/>
<text text-anchor="middle" x="1068" y="-159.248" font-family="Times,serif" font-size="14.00">{B, C}</text>
</g>
<!-- 1&#45;&gt;sink -->
<g id="edge22" class="edge"><title>1&#45;&gt;sink</title>
<path fill="none" stroke="black" d="M1291.85,-292.814C1258.53,-291.917 1201.83,-285.867 1164,-257.448 1094,-204.854 1091.09,-108.92 1164,-60.4476 1201.92,-35.241 1514.21,-27.8099 1622.89,-25.9756"/>
<polygon fill="black" stroke="black" points="1623.11,-29.4726 1633.05,-25.8106 1622.99,-22.4736 1623.11,-29.4726"/>
<text text-anchor="middle" x="1132" y="-159.248" font-family="Times,serif" font-size="14.00">{B, D}</text>
</g>
<!-- 1&#45;&gt;sink -->
<g id="edge23" class="edge"><title>1&#45;&gt;sink</title>
<path fill="none" stroke="black" d="M1291.94,-291.655C1265.4,-289.397 1225.6,-281.818 1202,-257.448 1171.55,-225.997 1168.65,-88.8093 1202,-60.4476 1233.76,-33.4404 1519.19,-27.2015 1622.71,-25.822"/>
<polygon fill="black" stroke="black" points="1623.05,-29.3182 1633,-25.6931 1622.96,-22.3188 1623.05,-29.3182"/>
<text text-anchor="middle" x="1186" y="-159.248" font-family="Times,serif" font-size="14.00">{}</text>
</g>
<!-- 1&#45;&gt;sink -->
<g id="edge24" class="edge"><title>1&#45;&gt;sink</title>
<path fill="none" stroke="black" d="M1297.61,-282.139C1286.6,-276.071 1273.53,-267.594 1264,-257.448 1233.77,-225.259 1227.01,-213.213 1216,-170.448 1203.94,-123.608 1245.4,-73.0512 1264,-60.4476 1293.33,-40.5728 1530.38,-30.0635 1623.06,-26.6823"/>
<polygon fill="black" stroke="black" points="1623.24,-30.178 1633.11,-26.3229 1622.99,-23.1825 1623.24,-30.178"/>
<text text-anchor="middle" x="1236" y="-159.248" font-family="Times,serif" font-size="14.00">{B, A}</text>
</g>
<!-- 1&#45;&gt;sink -->
<g id="edge25" class="edge"><title>1&#45;&gt;sink</title>
<path fill="none" stroke="black" d="M1308.31,-276.773C1292.29,-251.257 1265.3,-199.19 1279,-155.448 1294.37,-106.387 1300.83,-86.7538 1345,-60.4476 1391.07,-33.0091 1549.59,-27.0634 1622.62,-25.7882"/>
<polygon fill="black" stroke="black" points="1622.81,-29.2859 1632.75,-25.632 1622.7,-22.2867 1622.81,-29.2859"/>
<text text-anchor="middle" x="1308" y="-159.248" font-family="Times,serif" font-size="14.00">{B, A, D}</text>
</g>
<!-- 1&#45;&gt;sink -->
<g id="edge26" class="edge"><title>1&#45;&gt;sink</title>
<path fill="none" stroke="black" d="M1321.79,-275.541C1330.36,-224.585 1356.69,-75.0922 1373,-60.4476 1408.97,-28.1479 1553.28,-24.639 1622.54,-24.8817"/>
<polygon fill="black" stroke="black" points="1622.57,-28.3818 1632.59,-24.9453 1622.61,-21.3819 1622.57,-28.3818"/>
<text text-anchor="middle" x="1373" y="-159.248" font-family="Times,serif" font-size="14.00">{A, C, D}</text>
</g>
<!-- 1&#45;&gt;sink -->
<g id="edge28" class="edge"><title>1&#45;&gt;sink</title>
<path fill="none" stroke="black" d="M1334.03,-278.012C1354.93,-256.774 1391.81,-214.798 1406,-170.448 1420.94,-123.762 1365.72,-97.3321 1398,-60.4476 1426.7,-27.656 1557.03,-24.2561 1622.39,-24.6855"/>
<polygon fill="black" stroke="black" points="1622.63,-28.188 1632.67,-24.7884 1622.7,-21.1884 1622.63,-28.188"/>
<text text-anchor="middle" x="1437.5" y="-159.248" font-family="Times,serif" font-size="14.00">{B, A, C}</text>
</g>
<!-- 1&#45;&gt;sink -->
<g id="edge29" class="edge"><title>1&#45;&gt;sink</title>
<path fill="none" stroke="black" d="M1340.96,-282.911C1376.31,-266.155 1444.45,-227.69 1470,-170.448 1491.67,-121.9 1388.26,-100.693 1423,-60.4476 1448.32,-31.1171 1562.32,-25.9407 1622.5,-25.296"/>
<polygon fill="black" stroke="black" points="1622.76,-28.7944 1632.73,-25.2246 1622.71,-21.7946 1622.76,-28.7944"/>
<text text-anchor="middle" x="1510" y="-159.248" font-family="Times,serif" font-size="14.00">{B, A, D, C}</text>
</g>
<!-- 1&#45;&gt;sink -->
<g id="edge30" class="edge"><title>1&#45;&gt;sink</title>
<path fill="none" stroke="black" d="M1344.92,-288.191C1395.9,-278.229 1508.01,-248.077 1551,-170.448 1554.23,-164.616 1553.93,-161.435 1551,-155.448 1525.52,-103.386 1473.48,-127.509 1448,-75.4476 1445.07,-69.4599 1443.69,-65.5312 1448,-60.4476 1469.99,-34.5265 1568.12,-27.7739 1622.83,-26.0345"/>
<polygon fill="black" stroke="black" points="1622.94,-29.533 1632.84,-25.7569 1622.74,-22.5357 1622.94,-29.533"/>
<text text-anchor="middle" x="1573.5" y="-159.248" font-family="Times,serif" font-size="14.00">{A, D}</text>
</g>
<!-- 1&#45;&gt;sink -->
<g id="edge32" class="edge"><title>1&#45;&gt;sink</title>
<path fill="none" stroke="black" d="M1345.9,-291.318C1406.76,-287.064 1553.22,-266.813 1598,-170.448 1621.51,-119.859 1559.15,-120.274 1513,-93.4476 1496.15,-83.6509 1483.59,-91.8185 1473,-75.4476 1469.38,-69.8493 1468.74,-65.577 1473,-60.4476 1491.67,-37.9559 1573.93,-29.8344 1622.91,-26.9639"/>
<polygon fill="black" stroke="black" points="1623.32,-30.447 1633.12,-26.4132 1622.94,-23.4571 1623.32,-30.447"/>
<text text-anchor="middle" x="1614" y="-159.248" font-family="Times,serif" font-size="14.00">{A}</text>
</g>
<!-- 1&#45;&gt;sink -->
<g id="edge33" class="edge"><title>1&#45;&gt;sink</title>
<path fill="none" stroke="black" d="M1346.3,-292.911C1398.85,-292.362 1515.12,-283.971 1586,-224.448 1613.85,-201.058 1643.64,-189.163 1630,-155.448 1615.62,-119.901 1602.93,-113.096 1570,-93.4476 1544.63,-78.3072 1523.84,-99.0005 1506,-75.4476 1501.97,-70.1336 1501.84,-65.6579 1506,-60.4476 1520.4,-42.4108 1582.45,-32.9607 1623.26,-28.6039"/>
<polygon fill="black" stroke="black" points="1623.8,-32.0681 1633.39,-27.5796 1623.09,-25.1036 1623.8,-32.0681"/>
<text text-anchor="middle" x="1653" y="-159.248" font-family="Times,serif" font-size="14.00">{A, C}</text>
</g>
<!-- 2&#45;&gt;sink -->
<g id="edge34" class="edge"><title>2&#45;&gt;sink</title>
<path fill="none" stroke="black" d="M1911.04,-112.147C1872.98,-108.179 1792.26,-99.8588 1724,-93.4476 1701.12,-91.2991 1533.52,-92.3866 1518,-75.4476 1485.95,-40.4755 1570.72,-29.9598 1622.78,-26.8012"/>
<polygon fill="black" stroke="black" points="1623.22,-30.2822 1633.02,-26.2475 1622.84,-23.2924 1623.22,-30.2822"/>
<text text-anchor="middle" x="1538" y="-64.2476" font-family="Times,serif" font-size="14.00">{A, C}</text>
</g>
<!-- 2&#45;&gt;sink -->
<g id="edge35" class="edge"><title>2&#45;&gt;sink</title>
<path fill="none" stroke="black" d="M1911.17,-112.224C1834.77,-104.416 1583.78,-78.554 1581,-75.4476 1564.2,-56.6794 1596.8,-42.2906 1625.09,-33.8693"/>
<polygon fill="black" stroke="black" points="1626.14,-37.2099 1634.82,-31.142 1624.25,-30.4693 1626.14,-37.2099"/>
<text text-anchor="middle" x="1609.5" y="-64.2476" font-family="Times,serif" font-size="14.00">{B, C, D}</text>
</g>
<!-- 2&#45;&gt;sink -->
<g id="edge36" class="edge"><title>2&#45;&gt;sink</title>
<path fill="none" stroke="black" d="M1910.98,-112.907C1849.18,-108.365 1677.55,-94.1627 1661,-75.4476 1655.5,-69.2288 1653.97,-60.6795 1654.21,-52.4084"/>
<polygon fill="black" stroke="black" points="1657.71,-52.5931 1655.3,-42.2768 1650.75,-51.8463 1657.71,-52.5931"/>
<text text-anchor="middle" x="1673" y="-64.2476" font-family="Times,serif" font-size="14.00">{D}</text>
</g>
<!-- 2&#45;&gt;sink -->
<g id="edge37" class="edge"><title>2&#45;&gt;sink</title>
<path fill="none" stroke="black" d="M1910.77,-115.053C1868.65,-115.275 1775.38,-111.278 1708,-75.4476 1696.05,-69.092 1685.33,-58.6664 1677.07,-48.9754"/>
<polygon fill="black" stroke="black" points="1679.74,-46.7055 1670.74,-41.1132 1674.29,-51.0966 1679.74,-46.7055"/>
<text text-anchor="middle" x="1728" y="-64.2476" font-family="Times,serif" font-size="14.00">{C, D}</text>
</g>
<!-- 2&#45;&gt;sink -->
<g id="edge38" class="edge"><title>2&#45;&gt;sink</title>
<path fill="none" stroke="black" d="M1911.29,-111.628C1879.48,-106.97 1818.82,-96.0639 1771,-75.4476 1759.79,-70.6158 1758.83,-66.064 1748,-60.4476 1730.43,-51.3394 1709.92,-43.0582 1693.13,-36.8402"/>
<polygon fill="black" stroke="black" points="1694.32,-33.5471 1683.72,-33.4269 1691.93,-40.1275 1694.32,-33.5471"/>
<text text-anchor="middle" x="1791" y="-64.2476" font-family="Times,serif" font-size="14.00">{B, C}</text>
</g>
<!-- 2&#45;&gt;sink -->
<g id="edge39" class="edge"><title>2&#45;&gt;sink</title>
<path fill="none" stroke="black" d="M1912.37,-107.697C1891.97,-100.703 1860.1,-88.9221 1834,-75.4476 1823.16,-69.8491 1822.23,-65.232 1811,-60.4476 1773.52,-44.477 1727.57,-35.1555 1696.26,-30.204"/>
<polygon fill="black" stroke="black" points="1696.65,-26.7234 1686.24,-28.6891 1695.61,-33.6448 1696.65,-26.7234"/>
<text text-anchor="middle" x="1854" y="-64.2476" font-family="Times,serif" font-size="14.00">{B, D}</text>
</g>
<!-- 2&#45;&gt;sink -->
<g id="edge40" class="edge"><title>2&#45;&gt;sink</title>
<path fill="none" stroke="black" d="M1919.56,-97.7512C1908.64,-85.3922 1892.12,-69.2352 1874,-60.4476 1816.62,-32.6111 1741.46,-26.2896 1697.19,-25.1978"/>
<polygon fill="black" stroke="black" points="1697.22,-21.6979 1687.16,-25.0276 1697.1,-28.6969 1697.22,-21.6979"/>
<text text-anchor="middle" x="1902" y="-64.2476" font-family="Times,serif" font-size="14.00">{}</text>
</g>
<!-- 2&#45;&gt;sink -->
<g id="edge41" class="edge"><title>2&#45;&gt;sink</title>
<path fill="none" stroke="black" d="M1929.74,-93.685C1926.81,-82.1161 1921.31,-68.467 1911,-60.4476 1878.42,-35.098 1758.75,-28.1058 1697.16,-26.1792"/>
<polygon fill="black" stroke="black" points="1697.18,-22.6784 1687.08,-25.8931 1696.98,-29.6755 1697.18,-22.6784"/>
<text text-anchor="middle" x="1942" y="-64.2476" font-family="Times,serif" font-size="14.00">{B, A}</text>
</g>
<!-- 2&#45;&gt;sink -->
<g id="edge42" class="edge"><title>2&#45;&gt;sink</title>
<path fill="none" stroke="black" d="M1950.16,-101.349C1963.22,-89.8299 1977.19,-72.9914 1966,-60.4476 1948.38,-40.7029 1775.07,-30.567 1697.36,-26.9851"/>
<polygon fill="black" stroke="black" points="1697.2,-23.4746 1687.06,-26.5228 1696.89,-30.4676 1697.2,-23.4746"/>
<text text-anchor="middle" x="1999" y="-64.2476" font-family="Times,serif" font-size="14.00">{B, A, D}</text>
</g>
<!-- 2&#45;&gt;sink -->
<g id="edge43" class="edge"><title>2&#45;&gt;sink</title>
<path fill="none" stroke="black" d="M1954.63,-110.963C1990.73,-104.29 2056.98,-87.8828 2032,-60.4476 2009.74,-35.9922 1786.89,-28.2893 1697.15,-26.1674"/>
<polygon fill="black" stroke="black" points="1697.22,-22.668 1687.14,-25.9409 1697.06,-29.6663 1697.22,-22.668"/>
<text text-anchor="middle" x="2066" y="-64.2476" font-family="Times,serif" font-size="14.00">{A, C, D}</text>
</g>
<!-- 2&#45;&gt;sink -->
<g id="edge44" class="edge"><title>2&#45;&gt;sink</title>
<path fill="none" stroke="black" d="M1955.16,-114.307C2009.35,-113.261 2141.15,-106.091 2099,-60.4476 2071.98,-31.1862 1798.09,-26.3715 1697.12,-25.5928"/>
<polygon fill="black" stroke="black" points="1697.09,-22.0926 1687.07,-25.5244 1697.05,-29.0924 1697.09,-22.0926"/>
<text text-anchor="middle" x="2117.5" y="-64.2476" font-family="Times,serif" font-size="14.00">{B}</text>
</g>
<!-- 2&#45;&gt;sink -->
<g id="edge45" class="edge"><title>2&#45;&gt;sink</title>
<path fill="none" stroke="black" d="M1955,-113.549C2002.18,-111.112 2110.62,-102.615 2133,-75.4476 2137.24,-70.3022 2137.54,-65.3325 2133,-60.4476 2103.58,-28.7662 1804.04,-25.511 1697.42,-25.3634"/>
<polygon fill="black" stroke="black" points="1697.14,-21.8634 1687.14,-25.3582 1697.14,-28.8634 1697.14,-21.8634"/>
<text text-anchor="middle" x="2164.5" y="-64.2476" font-family="Times,serif" font-size="14.00">{B, A, C}</text>
</g>
<!-- 2&#45;&gt;sink -->
<g id="edge46" class="edge"><title>2&#45;&gt;sink</title>
<path fill="none" stroke="black" d="M1955.24,-113.49C2024.72,-110.107 2231.15,-96.8909 2197,-60.4476 2162.97,-24.1266 1813.5,-24.0219 1697.32,-25.0069"/>
<polygon fill="black" stroke="black" points="1697.11,-21.5086 1687.14,-25.1012 1697.17,-28.5083 1697.11,-21.5086"/>
<text text-anchor="middle" x="2237" y="-64.2476" font-family="Times,serif" font-size="14.00">{B, A, D, C}</text>
</g>
<!-- 2&#45;&gt;sink -->
<g id="edge47" class="edge"><title>2&#45;&gt;sink</title>
<path fill="none" stroke="black" d="M1955.11,-114.415C2038.05,-113.925 2323.65,-108.752 2278,-60.4476 2257.99,-39.2707 1828.24,-28.8535 1697.44,-26.1656"/>
<polygon fill="black" stroke="black" points="1697.2,-22.6601 1687.13,-25.9571 1697.06,-29.6587 1697.2,-22.6601"/>
<text text-anchor="middle" x="2302.5" y="-64.2476" font-family="Times,serif" font-size="14.00">{A, D}</text>
</g>
<!-- 2&#45;&gt;sink -->
<g id="edge48" class="edge"><title>2&#45;&gt;sink</title>
<path fill="none" stroke="black" d="M1955.1,-114.788C2045.47,-115.824 2379.69,-115.977 2327,-60.4476 2305.19,-37.4677 1834.47,-28.2151 1697.23,-26.0001"/>
<polygon fill="black" stroke="black" points="1697.26,-22.5001 1687.2,-25.8412 1697.14,-29.4992 1697.26,-22.5001"/>
<text text-anchor="middle" x="2344" y="-64.2476" font-family="Times,serif" font-size="14.00">{A}</text>
</g>
<!-- 2&#45;&gt;sink -->
<g id="edge49" class="edge"><title>2&#45;&gt;sink</title>
<path fill="none" stroke="black" d="M1955.17,-114.13C2038.9,-112.706 2332.49,-105.583 2360,-75.4476 2364.49,-70.5239 2364.59,-65.278 2360,-60.4476 2337.01,-36.2815 1839.78,-27.8352 1697.64,-25.9096"/>
<polygon fill="black" stroke="black" points="1697.32,-22.4051 1687.27,-25.7722 1697.22,-29.4045 1697.32,-22.4051"/>
<text text-anchor="middle" x="2374.5" y="-64.2476" font-family="Times,serif" font-size="14.00">{C}</text>
</g>
<!-- 3&#45;&gt;2 -->
<g id="edge51" class="edge"><title>3&#45;&gt;2</title>
<path fill="none" stroke="black" d="M2704.15,-203.641C2638.71,-199.13 2465.77,-186.567 2322,-170.448 2189.14,-155.551 2031.59,-131.794 1965.12,-121.489"/>
<polygon fill="black" stroke="black" points="1965.3,-117.976 1954.88,-119.897 1964.23,-124.893 1965.3,-117.976"/>
<text text-anchor="middle" x="2334" y="-159.248" font-family="Times,serif" font-size="14.00">{D}</text>
</g>
<!-- 3&#45;&gt;3 -->
<g id="edge59" class="edge"><title>3&#45;&gt;3</title>
<path fill="none" stroke="black" d="M2755.53,-214.2C2766.51,-214.938 2776,-212.354 2776,-206.448 2776,-202.479 2771.72,-200.011 2765.57,-199.042"/>
<polygon fill="black" stroke="black" points="2765.65,-195.543 2755.53,-198.696 2765.41,-202.538 2765.65,-195.543"/>
<text text-anchor="middle" x="2787.5" y="-202.748" font-family="Times,serif" font-size="14.00">{C}</text>
</g>
<!-- 3&#45;&gt;sink -->
<g id="edge50" class="edge"><title>3&#45;&gt;sink</title>
<path fill="none" stroke="black" d="M2703.78,-205.329C2651.38,-204.42 2533.3,-199.054 2439,-170.448 2408,-161.042 2390.95,-165.06 2374,-137.448 2363.77,-120.781 2367.05,-111.727 2374,-93.4476 2377.8,-83.4427 2386.2,-85.4526 2390,-75.4476 2392.37,-69.2162 2394.6,-65.2733 2390,-60.4476 2365.9,-35.1637 1842.97,-27.4792 1697.35,-25.8256"/>
<polygon fill="black" stroke="black" points="1697.17,-22.3236 1687.13,-25.7126 1697.1,-29.3232 1697.17,-22.3236"/>
<text text-anchor="middle" x="2402.5" y="-111.748" font-family="Times,serif" font-size="14.00">{B, C, D}</text>
</g>
<!-- 3&#45;&gt;sink -->
<g id="edge52" class="edge"><title>3&#45;&gt;sink</title>
<path fill="none" stroke="black" d="M2704.07,-204.846C2662.17,-203.093 2579.52,-196.329 2515,-170.448 2490.97,-160.81 2485.98,-155.049 2467,-137.448 2434.78,-107.576 2444.17,-80.343 2405,-60.4476 2341.71,-28.3046 1840.21,-25.5473 1697.67,-25.4175"/>
<polygon fill="black" stroke="black" points="1697.27,-21.9174 1687.27,-25.4122 1697.27,-28.9174 1697.27,-21.9174"/>
<text text-anchor="middle" x="2487" y="-111.748" font-family="Times,serif" font-size="14.00">{C, D}</text>
</g>
<!-- 3&#45;&gt;sink -->
<g id="edge53" class="edge"><title>3&#45;&gt;sink</title>
<path fill="none" stroke="black" d="M2704.79,-201.766C2675.95,-197.068 2628.68,-187.441 2591,-170.448 2567.4,-159.805 2562.05,-154.974 2543,-137.448 2524.4,-120.342 2527.26,-108.545 2507,-93.4476 2476.49,-70.712 2465.13,-68.7744 2428,-60.4476 2286.46,-28.7043 1831.6,-25.6334 1697.53,-25.4295"/>
<polygon fill="black" stroke="black" points="1697.36,-21.9295 1687.35,-25.4188 1697.35,-28.9295 1697.36,-21.9295"/>
<text text-anchor="middle" x="2563" y="-111.748" font-family="Times,serif" font-size="14.00">{B, C}</text>
</g>
<!-- 3&#45;&gt;sink -->
<g id="edge54" class="edge"><title>3&#45;&gt;sink</title>
<path fill="none" stroke="black" d="M2710.23,-194.779C2697.56,-188.1 2681.13,-179.138 2667,-170.448 2644.95,-156.886 2638.05,-154.974 2619,-137.448 2600.4,-120.342 2604.12,-107.318 2583,-93.4476 2538.2,-64.023 2519.91,-69.0006 2467,-60.4476 2315.72,-35.9945 1834.55,-27.7841 1697.03,-25.9055"/>
<polygon fill="black" stroke="black" points="1697.04,-22.4054 1687,-25.7714 1696.95,-29.4048 1697.04,-22.4054"/>
<text text-anchor="middle" x="2639" y="-111.748" font-family="Times,serif" font-size="14.00">{B, D}</text>
</g>
<!-- 3&#45;&gt;sink -->
<g id="edge55" class="edge"><title>3&#45;&gt;sink</title>
<path fill="none" stroke="black" d="M2722.44,-189.049C2707.56,-161.119 2676.81,-106.103 2659,-93.4476 2607.95,-57.1635 2584.03,-69.0928 2522,-60.4476 2359.01,-37.7317 1840.67,-28.2247 1697.15,-25.9878"/>
<polygon fill="black" stroke="black" points="1697.14,-22.4874 1687.09,-25.8334 1697.04,-29.4866 1697.14,-22.4874"/>
<text text-anchor="middle" x="2699" y="-111.748" font-family="Times,serif" font-size="14.00">{}</text>
</g>
<!-- 3&#45;&gt;sink -->
<g id="edge56" class="edge"><title>3&#45;&gt;sink</title>
<path fill="none" stroke="black" d="M2732.78,-188.194C2734.29,-163.829 2733.16,-119.419 2709,-93.4476 2671.03,-52.6335 2643.1,-68.8864 2588,-60.4476 2411.94,-33.4832 1848.52,-26.992 1697.53,-25.7199"/>
<polygon fill="black" stroke="black" points="1697.41,-22.2189 1687.38,-25.6371 1697.35,-29.2187 1697.41,-22.2189"/>
<text text-anchor="middle" x="2749" y="-111.748" font-family="Times,serif" font-size="14.00">{B, A}</text>
</g>
<!-- 3&#45;&gt;sink -->
<g id="edge57" class="edge"><title>3&#45;&gt;sink</title>
<path fill="none" stroke="black" d="M2744.93,-190.682C2764.71,-167.89 2796.1,-123.625 2773,-93.4476 2738.86,-48.8438 2706.54,-68.8271 2651,-60.4476 2461.92,-31.9221 1854.77,-26.548 1697.49,-25.6254"/>
<polygon fill="black" stroke="black" points="1697.39,-22.1249 1687.37,-25.5687 1697.35,-29.1248 1697.39,-22.1249"/>
<text text-anchor="middle" x="2810" y="-111.748" font-family="Times,serif" font-size="14.00">{B, A, D}</text>
</g>
<!-- 3&#45;&gt;sink -->
<g id="edge58" class="edge"><title>3&#45;&gt;sink</title>
<path fill="none" stroke="black" d="M2755.44,-198.51C2782.38,-189.405 2824.37,-170.554 2843,-137.448 2852.59,-120.405 2854.96,-108.917 2843,-93.4476 2807.32,-47.3151 2773.72,-68.7979 2716,-60.4476 2513.26,-31.1173 1860.49,-26.3246 1697.26,-25.5791"/>
<polygon fill="black" stroke="black" points="1697.25,-22.0791 1687.23,-25.5356 1697.22,-29.079 1697.25,-22.0791"/>
<text text-anchor="middle" x="2880" y="-111.748" font-family="Times,serif" font-size="14.00">{A, C, D}</text>
</g>
<!-- 3&#45;&gt;sink -->
<g id="edge60" class="edge"><title>3&#45;&gt;sink</title>
<path fill="none" stroke="black" d="M2756.67,-200.773C2816.98,-188.681 2959.3,-153.084 2913,-93.4476 2876.71,-46.7027 2842.59,-68.7518 2784,-60.4476 2567.08,-29.705 1866.59,-25.9654 1697.15,-25.5106"/>
<polygon fill="black" stroke="black" points="1697,-22.0103 1687,-25.4856 1696.99,-29.0103 1697,-22.0103"/>
<text text-anchor="middle" x="2950.5" y="-111.748" font-family="Times,serif" font-size="14.00">{B, A, C}</text>
</g>
<!-- 3&#45;&gt;sink -->
<g id="edge61" class="edge"><title>3&#45;&gt;sink</title>
<path fill="none" stroke="black" d="M2757.92,-203.63C2834.61,-197.45 3044.88,-172.995 2983,-93.4476 2946.4,-46.3963 2912.04,-68.7046 2853,-60.4476 2621.73,-28.1018 1872.9,-25.582 1697.16,-25.4418"/>
<polygon fill="black" stroke="black" points="1697.12,-21.9419 1687.11,-25.436 1697.11,-28.9419 1697.12,-21.9419"/>
<text text-anchor="middle" x="3031" y="-111.748" font-family="Times,serif" font-size="14.00">{B, A, D, C}</text>
</g>
<!-- 3&#45;&gt;sink -->
<g id="edge62" class="edge"><title>3&#45;&gt;sink</title>
<path fill="none" stroke="black" d="M2758.23,-205.779C2852.8,-206.032 3156.72,-198.834 3072,-93.4476 3029.23,-40.2465 2989.75,-68.7642 2922,-60.4476 2675.91,-30.2397 1879.12,-26.0888 1697.21,-25.532"/>
<polygon fill="black" stroke="black" points="1697.09,-22.0317 1687.08,-25.5028 1697.07,-29.0317 1697.09,-22.0317"/>
<text text-anchor="middle" x="3106.5" y="-111.748" font-family="Times,serif" font-size="14.00">{A, D}</text>
</g>
<!-- 3&#45;&gt;sink -->
<g id="edge63" class="edge"><title>3&#45;&gt;sink</title>
<path fill="none" stroke="black" d="M2757.92,-204.164C2828.08,-200.586 3015.2,-189.492 3074,-170.448 3101.85,-161.427 3116.38,-162.807 3131,-137.448 3140.77,-120.506 3143.01,-108.883 3131,-93.4476 3094.4,-46.3963 3060.05,-68.6091 3001,-60.4476 2739.05,-24.2425 1886.6,-24.7292 1697.42,-25.3007"/>
<polygon fill="black" stroke="black" points="1697.15,-21.8015 1687.16,-25.3339 1697.17,-28.8015 1697.15,-21.8015"/>
<text text-anchor="middle" x="3150.5" y="-111.748" font-family="Times,serif" font-size="14.00">{B}</text>
</g>
<!-- 3&#45;&gt;sink -->
<g id="edge64" class="edge"><title>3&#45;&gt;sink</title>
<path fill="none" stroke="black" d="M2757.83,-204.427C2832.66,-201.348 3042.48,-191.07 3108,-170.448 3136.29,-161.543 3151.09,-163.085 3166,-137.448 3175.83,-120.543 3177.36,-109.365 3166,-93.4476 3139.79,-56.7239 3114.4,-68.4342 3070,-60.4476 2931.65,-35.5635 1907,-27.1602 1697.39,-25.6931"/>
<polygon fill="black" stroke="black" points="1697.23,-22.192 1687.2,-25.6228 1697.18,-29.1918 1697.23,-22.192"/>
<text text-anchor="middle" x="3185" y="-111.748" font-family="Times,serif" font-size="14.00">{A}</text>
</g>
<!-- 3&#45;&gt;sink -->
<g id="edge65" class="edge"><title>3&#45;&gt;sink</title>
<path fill="none" stroke="black" d="M2758.01,-204.665C2837.69,-202.119 3070.67,-192.902 3143,-170.448 3171.32,-161.654 3186.09,-163.085 3201,-137.448 3210.83,-120.543 3211.8,-109.748 3201,-93.4476 3180.21,-62.0712 3159.8,-68.371 3123,-60.4476 2980.04,-29.6653 1910.86,-25.9421 1697.12,-25.5044"/>
<polygon fill="black" stroke="black" points="1697.04,-22.0044 1687.04,-25.485 1697.03,-29.0044 1697.04,-22.0044"/>
<text text-anchor="middle" x="3228" y="-111.748" font-family="Times,serif" font-size="14.00">{A, C}</text>
</g>
<!-- sink&#45;&gt;sink -->
<g id="edge66" class="edge"><title>sink&#45;&gt;sink</title>
<path fill="none" stroke="black" d="M1687.24,-25.9462C1697.02,-25.9784 1705,-25.4789 1705,-24.4476 1705,-23.8192 1702.04,-23.3883 1697.51,-23.1548"/>
<polygon fill="black" stroke="black" points="1697.31,-19.6501 1687.24,-22.9491 1697.17,-26.6487 1697.31,-19.6501"/>
<text text-anchor="middle" x="1725" y="-20.7476" font-family="Times,serif" font-size="14.00">{A, C}</text>
</g>
<!-- sink&#45;&gt;sink -->
<g id="edge67" class="edge"><title>sink&#45;&gt;sink</title>
<path fill="none" stroke="black" d="M1686.84,-26.9333C1713.01,-28.1043 1745,-27.2758 1745,-24.4476 1745,-21.973 1720.51,-21.0294 1696.85,-21.6166"/>
<polygon fill="black" stroke="black" points="1696.71,-18.1192 1686.84,-21.962 1696.95,-25.115 1696.71,-18.1192"/>
<text text-anchor="middle" x="1773.5" y="-20.7476" font-family="Times,serif" font-size="14.00">{B, C, D}</text>
</g>
<!-- sink&#45;&gt;sink -->
<g id="edge68" class="edge"><title>sink&#45;&gt;sink</title>
<path fill="none" stroke="black" d="M1686.93,-27.4436C1730.4,-30.1807 1802,-29.182 1802,-24.4476 1802,-20.0647 1740.63,-18.8834 1697.03,-20.904"/>
<polygon fill="black" stroke="black" points="1696.72,-17.4154 1686.93,-21.4517 1697.1,-24.4052 1696.72,-17.4154"/>
<text text-anchor="middle" x="1814" y="-20.7476" font-family="Times,serif" font-size="14.00">{D}</text>
</g>
<!-- sink&#45;&gt;sink -->
<g id="edge69" class="edge"><title>sink&#45;&gt;sink</title>
<path fill="none" stroke="black" d="M1686.48,-28.0152C1736.93,-32.1837 1826,-30.9945 1826,-24.4476 1826,-18.3227 1748.04,-16.8871 1696.69,-20.1409"/>
<polygon fill="black" stroke="black" points="1696.2,-16.6664 1686.48,-20.8801 1696.71,-23.6481 1696.2,-16.6664"/>
<text text-anchor="middle" x="1846" y="-20.7476" font-family="Times,serif" font-size="14.00">{C, D}</text>
</g>
<!-- sink&#45;&gt;sink -->
<g id="edge70" class="edge"><title>sink&#45;&gt;sink</title>
<path fill="none" stroke="black" d="M1686.53,-28.4027C1747.11,-34.2035 1866,-32.8851 1866,-24.4476 1866,-16.4551 1759.32,-14.8506 1696.58,-19.6343"/>
<polygon fill="black" stroke="black" points="1696.2,-16.1538 1686.53,-20.4926 1696.79,-23.1284 1696.2,-16.1538"/>
<text text-anchor="middle" x="1886" y="-20.7476" font-family="Times,serif" font-size="14.00">{B, C}</text>
</g>
<!-- sink&#45;&gt;sink -->
<g id="edge71" class="edge"><title>sink&#45;&gt;sink</title>
<path fill="none" stroke="black" d="M1686.29,-28.6966C1756.2,-36.2233 1906,-34.807 1906,-24.4476 1906,-14.5739 1769.92,-12.8244 1696.63,-19.1992"/>
<polygon fill="black" stroke="black" points="1695.91,-15.7522 1686.29,-20.1987 1696.58,-22.7197 1695.91,-15.7522"/>
<text text-anchor="middle" x="1926" y="-20.7476" font-family="Times,serif" font-size="14.00">{B, D}</text>
</g>
<!-- sink&#45;&gt;sink -->
<g id="edge72" class="edge"><title>sink&#45;&gt;sink</title>
<path fill="none" stroke="black" d="M1686.4,-28.9797C1765.27,-38.2357 1946,-36.725 1946,-24.4476 1946,-12.6619 1779.46,-10.7978 1696.35,-18.8556"/>
<polygon fill="black" stroke="black" points="1695.98,-15.3754 1686.4,-19.9156 1696.72,-22.336 1695.98,-15.3754"/>
<text text-anchor="middle" x="1953" y="-20.7476" font-family="Times,serif" font-size="14.00">{}</text>
</g>
<!-- sink&#45;&gt;sink -->
<g id="edge73" class="edge"><title>sink&#45;&gt;sink</title>
<path fill="none" stroke="black" d="M1686.05,-29.2692C1769.79,-40.2423 1964,-38.6351 1964,-24.4476 1964,-10.8005 1784.3,-8.79364 1696.08,-18.4271"/>
<polygon fill="black" stroke="black" points="1695.56,-14.964 1686.05,-19.6261 1696.4,-21.9145 1695.56,-14.964"/>
<text text-anchor="middle" x="1984" y="-20.7476" font-family="Times,serif" font-size="14.00">{B, A}</text>
</g>
<!-- sink&#45;&gt;sink -->
<g id="edge74" class="edge"><title>sink&#45;&gt;sink</title>
<path fill="none" stroke="black" d="M1686.02,-29.4589C1778.16,-42.2548 2004,-40.5844 2004,-24.4476 2004,-8.87824 1793.76,-6.77586 1696.22,-18.1405"/>
<polygon fill="black" stroke="black" points="1695.5,-14.7037 1686.02,-19.4364 1696.38,-21.6479 1695.5,-14.7037"/>
<text text-anchor="middle" x="2033" y="-20.7476" font-family="Times,serif" font-size="14.00">{B, A, D}</text>
</g>
<!-- sink&#45;&gt;sink -->
<g id="edge75" class="edge"><title>sink&#45;&gt;sink</title>
<path fill="none" stroke="black" d="M1686.21,-29.5929C1789.1,-44.2682 2062,-42.5531 2062,-24.4476 2062,-6.90798 1805.89,-4.75031 1696.34,-17.9746"/>
<polygon fill="black" stroke="black" points="1695.67,-14.5325 1686.21,-19.3024 1696.58,-21.4731 1695.67,-14.5325"/>
<text text-anchor="middle" x="2091" y="-20.7476" font-family="Times,serif" font-size="14.00">{A, C, D}</text>
</g>
<!-- sink&#45;&gt;sink -->
<g id="edge76" class="edge"><title>sink&#45;&gt;sink</title>
<path fill="none" stroke="black" d="M1686.12,-29.6854C1799.02,-46.2815 2120,-44.5355 2120,-24.4476 2120,-4.92865 1816.94,-2.72744 1696.2,-17.844"/>
<polygon fill="black" stroke="black" points="1695.56,-14.3987 1686.12,-19.2099 1696.5,-21.3353 1695.56,-14.3987"/>
<text text-anchor="middle" x="2131.5" y="-20.7476" font-family="Times,serif" font-size="14.00">{B}</text>
</g>
<!-- sink&#45;&gt;sink -->
<g id="edge77" class="edge"><title>sink&#45;&gt;sink</title>
<path fill="none" stroke="black" d="M1686.01,-29.8694C1804.25,-48.2861 2143,-46.4789 2143,-24.4476 2143,-3.01882 1822.52,-0.723103 1696.2,-17.5605"/>
<polygon fill="black" stroke="black" points="1695.41,-14.137 1686.01,-19.0259 1696.41,-21.0656 1695.41,-14.137"/>
<text text-anchor="middle" x="2171.5" y="-20.7476" font-family="Times,serif" font-size="14.00">{B, A, C}</text>
</g>
<!-- sink&#45;&gt;sink -->
<g id="edge78" class="edge"><title>sink&#45;&gt;sink</title>
<path fill="none" stroke="black" d="M1685.89,-29.9365C1813.38,-50.2968 2200,-48.4672 2200,-24.4476 2200,-1.03799 1832.77,1.29428 1696.09,-17.4508"/>
<polygon fill="black" stroke="black" points="1695.27,-14.0341 1685.89,-18.9588 1696.29,-20.9589 1695.27,-14.0341"/>
<text text-anchor="middle" x="2237" y="-20.7476" font-family="Times,serif" font-size="14.00">{B, A, D, C}</text>
</g>
<!-- sink&#45;&gt;sink -->
<g id="edge79" class="edge"><title>sink&#45;&gt;sink</title>
<path fill="none" stroke="black" d="M1686.07,-30.009C1824.64,-52.3053 2274,-50.4516 2274,-24.4476 2274,0.946791 1845.45,3.30989 1696.32,-17.3584"/>
<polygon fill="black" stroke="black" points="1695.45,-13.9494 1686.07,-18.8863 1696.48,-20.8729 1695.45,-13.9494"/>
<text text-anchor="middle" x="2294.5" y="-20.7476" font-family="Times,serif" font-size="14.00">{A, D}</text>
</g>
<!-- sink&#45;&gt;sink -->
<g id="edge80" class="edge"><title>sink&#45;&gt;sink</title>
<path fill="none" stroke="black" d="M1685.93,-30.1035C1831.41,-54.3114 2315,-52.4262 2315,-24.4476 2315,2.90244 1852.89,5.31828 1696.23,-17.2001"/>
<polygon fill="black" stroke="black" points="1695.28,-13.8063 1685.93,-18.7918 1696.34,-20.7243 1695.28,-13.8063"/>
<text text-anchor="middle" x="2327" y="-20.7476" font-family="Times,serif" font-size="14.00">{A}</text>
</g>
<!-- sink&#45;&gt;sink -->
<g id="edge81" class="edge"><title>sink&#45;&gt;sink</title>
<path fill="none" stroke="black" d="M1685.87,-30.2363C1836.61,-56.3147 2339,-54.3851 2339,-24.4476 2339,4.84666 1857.96,7.32358 1696.06,-17.0169"/>
<polygon fill="black" stroke="black" points="1695.18,-13.6131 1685.87,-18.659 1696.3,-20.524 1695.18,-13.6131"/>
<text text-anchor="middle" x="2350.5" y="-20.7476" font-family="Times,serif" font-size="14.00">{C}</text>
</g>
</g>
</svg>
