<?xml version="1.0" encoding="UTF-8" standalone="no"?>
<!DOCTYPE svg PUBLIC "-//W3C//DTD SVG 1.1//EN"
 "http://www.w3.org/Graphics/SVG/1.1/DTD/svg11.dtd">
<!-- Generated by graphviz version 2.38.0 (20140413.2041)
 -->
<!-- Title: %3 Pages: 1 -->
<svg width="167pt" height="212pt"
 viewBox="0.00 0.00 166.54 212.00" xmlns="http://www.w3.org/2000/svg" xmlns:xlink="http://www.w3.org/1999/xlink">
<g id="graph0" class="graph" transform="scale(1 1) rotate(0) translate(4 208)">
<title>%3</title>
<polygon fill="white" stroke="none" points="-4,4 -4,-208 162.541,-208 162.541,4 -4,4"/>
<!-- fake -->
<g id="node1" class="node"><title>fake</title>
</g>
<!-- 0 -->
<g id="node2" class="node"><title>0</title>
<ellipse fill="none" stroke="black" cx="80.5409" cy="-109" rx="18" ry="18"/>
<ellipse fill="none" stroke="black" cx="80.5409" cy="-109" rx="22" ry="22"/>
<text text-anchor="middle" x="80.5409" y="-105.3" font-family="Times,serif" font-size="14.00">0</text>
</g>
<!-- fake&#45;&gt;0 -->
<g id="edge1" class="edge"><title>fake&#45;&gt;0</title>
<path fill="none" stroke="black" stroke-width="2" d="M80.5409,-167.981C80.5409,-160.153 80.5409,-150.608 80.5409,-141.539"/>
<polygon fill="black" stroke="black" stroke-width="2" points="84.041,-141.244 80.5409,-131.244 77.041,-141.244 84.041,-141.244"/>
</g>
<!-- 1 -->
<g id="node3" class="node"><title>1</title>
<ellipse fill="none" stroke="black" cx="80.5409" cy="-18" rx="27" ry="18"/>
<text text-anchor="middle" x="80.5409" y="-14.3" font-family="Times,serif" font-size="14.00">1</text>
</g>
<!-- 0&#45;&gt;1 -->
<g id="edge2" class="edge"><title>0&#45;&gt;1</title>
<path fill="none" stroke="black" d="M59.07,-102.821C31.179,-94.9974 -12.1936,-78.4358 3.54087,-54 12.736,-39.7199 29.3405,-31.199 44.7821,-26.1481"/>
<polygon fill="black" stroke="black" points="46.0286,-29.4316 54.672,-23.3044 44.0941,-22.7042 46.0286,-29.4316"/>
<text text-anchor="middle" x="15.5409" y="-57.8" font-family="Times,serif" font-size="14.00">{A}</text>
</g>
<!-- 0&#45;&gt;1 -->
<g id="edge3" class="edge"><title>0&#45;&gt;1</title>
<path fill="none" stroke="black" d="M65.0326,-92.7246C59.3151,-86.0402 53.5116,-77.7343 50.5409,-69 48.3942,-62.6884 48.2279,-60.2526 50.5409,-54 52.2884,-49.2759 54.99,-44.7592 58.0708,-40.6334"/>
<polygon fill="black" stroke="black" points="60.9403,-42.6614 64.7432,-32.7725 55.6036,-38.1315 60.9403,-42.6614"/>
<text text-anchor="middle" x="70.5409" y="-57.8" font-family="Times,serif" font-size="14.00">{A, B}</text>
</g>
<!-- 1&#45;&gt;0 -->
<g id="edge4" class="edge"><title>1&#45;&gt;0</title>
<path fill="none" stroke="black" d="M86.3907,-35.885C88.0828,-41.568 89.6994,-47.9919 90.5409,-54 91.6443,-61.8784 90.9661,-70.3575 89.5505,-78.209"/>
<polygon fill="black" stroke="black" points="86.113,-77.5434 87.3526,-88.0655 92.9452,-79.067 86.113,-77.5434"/>
<text text-anchor="middle" x="102.041" y="-57.8" font-family="Times,serif" font-size="14.00">{B}</text>
</g>
<!-- 1&#45;&gt;0 -->
<g id="edge5" class="edge"><title>1&#45;&gt;0</title>
<path fill="none" stroke="black" d="M99.3977,-31.4415C111.217,-40.9309 123.222,-54.7569 117.541,-69 114.736,-76.0327 109.993,-82.5245 104.822,-88.1122"/>
<polygon fill="black" stroke="black" points="102.344,-85.64 97.6474,-95.137 107.241,-90.6417 102.344,-85.64"/>
<text text-anchor="middle" x="138.541" y="-57.8" font-family="Times,serif" font-size="14.00">{A, B}</text>
</g>
</g>
</svg>
