<?xml version="1.0" encoding="UTF-8" standalone="no"?>
<!DOCTYPE svg PUBLIC "-//W3C//DTD SVG 1.1//EN"
 "http://www.w3.org/Graphics/SVG/1.1/DTD/svg11.dtd">
<!-- Generated by graphviz version 2.38.0 (20140413.2041)
 -->
<!-- Title: %3 Pages: 1 -->
<svg width="230pt" height="299pt"
 viewBox="0.00 0.00 230.00 299.00" xmlns="http://www.w3.org/2000/svg" xmlns:xlink="http://www.w3.org/1999/xlink">
<g id="graph0" class="graph" transform="scale(1 1) rotate(0) translate(4 295)">
<title>%3</title>
<polygon fill="white" stroke="none" points="-4,4 -4,-295 226,-295 226,4 -4,4"/>
<!-- fake -->
<g id="node1" class="node"><title>fake</title>
</g>
<!-- 0 -->
<g id="node2" class="node"><title>0</title>
<ellipse fill="none" stroke="black" cx="27" cy="-200" rx="27" ry="18"/>
<text text-anchor="middle" x="27" y="-196.3" font-family="Times,serif" font-size="14.00">0</text>
</g>
<!-- fake&#45;&gt;0 -->
<g id="edge1" class="edge"><title>fake&#45;&gt;0</title>
<path fill="none" stroke="black" stroke-width="2" d="M27,-254.813C27,-246.789 27,-237.047 27,-228.069"/>
<polygon fill="black" stroke="black" stroke-width="2" points="30.5001,-228.029 27,-218.029 23.5001,-228.029 30.5001,-228.029"/>
</g>
<!-- 0&#45;&gt;0 -->
<g id="edge3" class="edge"><title>0&#45;&gt;0</title>
<path fill="none" stroke="black" d="M53.7949,-202.245C63.7804,-202.319 72,-201.57 72,-200 72,-199.019 68.7892,-198.358 63.9433,-198.019"/>
<polygon fill="black" stroke="black" points="63.8825,-194.516 53.7949,-197.755 63.7004,-201.514 63.8825,-194.516"/>
<text text-anchor="middle" x="79" y="-196.3" font-family="Times,serif" font-size="14.00">{}</text>
</g>
<!-- 0&#45;&gt;0 -->
<g id="edge4" class="edge"><title>0&#45;&gt;0</title>
<path fill="none" stroke="black" d="M53.5416,-204.061C71.9121,-205.291 90,-203.938 90,-200 90,-196.801 78.0592,-195.307 63.7278,-195.52"/>
<polygon fill="black" stroke="black" points="63.389,-192.031 53.5416,-195.939 63.6772,-199.025 63.389,-192.031"/>
<text text-anchor="middle" x="101.5" y="-196.3" font-family="Times,serif" font-size="14.00">{B}</text>
</g>
<!-- 0&#45;&gt;0 -->
<g id="edge5" class="edge"><title>0&#45;&gt;0</title>
<path fill="none" stroke="black" d="M53.1436,-205.217C80.8415,-208.384 113,-206.645 113,-200 113,-194.16 88.1583,-192.11 63.3369,-193.848"/>
<polygon fill="black" stroke="black" points="62.7822,-190.385 53.1436,-194.783 63.4214,-197.355 62.7822,-190.385"/>
<text text-anchor="middle" x="133" y="-196.3" font-family="Times,serif" font-size="14.00">{B, A}</text>
</g>
<!-- 1 -->
<g id="node3" class="node"><title>1</title>
<ellipse fill="none" stroke="black" cx="27" cy="-113" rx="27" ry="18"/>
<text text-anchor="middle" x="27" y="-109.3" font-family="Times,serif" font-size="14.00">1</text>
</g>
<!-- 0&#45;&gt;1 -->
<g id="edge2" class="edge"><title>0&#45;&gt;1</title>
<path fill="none" stroke="black" d="M27,-181.799C27,-170.163 27,-154.548 27,-141.237"/>
<polygon fill="black" stroke="black" points="30.5001,-141.175 27,-131.175 23.5001,-141.175 30.5001,-141.175"/>
<text text-anchor="middle" x="39" y="-152.8" font-family="Times,serif" font-size="14.00">{A}</text>
</g>
<!-- 1&#45;&gt;1 -->
<g id="edge6" class="edge"><title>1&#45;&gt;1</title>
<path fill="none" stroke="black" d="M53.7949,-115.619C63.7804,-115.705 72,-114.832 72,-113 72,-111.855 68.7892,-111.085 63.9433,-110.689"/>
<polygon fill="black" stroke="black" points="63.8964,-107.186 53.7949,-110.381 63.6841,-114.183 63.8964,-107.186"/>
<text text-anchor="middle" x="84" y="-109.3" font-family="Times,serif" font-size="14.00">{A}</text>
</g>
<!-- 1&#45;&gt;1 -->
<g id="edge7" class="edge"><title>1&#45;&gt;1</title>
<path fill="none" stroke="black" d="M53.3842,-117.601C74.0793,-119.264 96,-117.73 96,-113 96,-109.046 80.682,-107.325 63.5669,-107.838"/>
<polygon fill="black" stroke="black" points="63.1768,-104.355 53.3842,-108.399 63.5615,-111.344 63.1768,-104.355"/>
<text text-anchor="middle" x="103" y="-109.3" font-family="Times,serif" font-size="14.00">{}</text>
</g>
<!-- 1&#45;&gt;1 -->
<g id="edge9" class="edge"><title>1&#45;&gt;1</title>
<path fill="none" stroke="black" d="M52.8694,-119.027C80.9495,-122.802 114,-120.793 114,-113 114,-106.12 88.2418,-103.748 62.8849,-105.884"/>
<polygon fill="black" stroke="black" points="62.4326,-102.412 52.8694,-106.973 63.1891,-109.371 62.4326,-102.412"/>
<text text-anchor="middle" x="134" y="-109.3" font-family="Times,serif" font-size="14.00">{B, A}</text>
</g>
<!-- 2 -->
<g id="node4" class="node"><title>2</title>
<ellipse fill="none" stroke="black" cx="27" cy="-22" rx="18" ry="18"/>
<ellipse fill="none" stroke="black" cx="27" cy="-22" rx="22" ry="22"/>
<text text-anchor="middle" x="27" y="-18.3" font-family="Times,serif" font-size="14.00">2</text>
</g>
<!-- 1&#45;&gt;2 -->
<g id="edge8" class="edge"><title>1&#45;&gt;2</title>
<path fill="none" stroke="black" d="M27,-94.8399C27,-83.4407 27,-68.1336 27,-54.5781"/>
<polygon fill="black" stroke="black" points="30.5001,-54.1905 27,-44.1905 23.5001,-54.1906 30.5001,-54.1905"/>
<text text-anchor="middle" x="38.5" y="-65.8" font-family="Times,serif" font-size="14.00">{B}</text>
</g>
<!-- 2&#45;&gt;2 -->
<g id="edge10" class="edge"><title>2&#45;&gt;2</title>
<path fill="none" stroke="black" d="M49.2124,-24.1305C58.7952,-24.3049 67,-23.5947 67,-22 67,-21.0282 63.9533,-20.3849 59.4045,-20.0701"/>
<polygon fill="black" stroke="black" points="59.2793,-16.567 49.2124,-19.8695 59.1415,-23.5657 59.2793,-16.567"/>
<text text-anchor="middle" x="79" y="-18.3" font-family="Times,serif" font-size="14.00">{A}</text>
</g>
<!-- 2&#45;&gt;2 -->
<g id="edge11" class="edge"><title>2&#45;&gt;2</title>
<path fill="none" stroke="black" d="M48.7551,-25.5731C68.6714,-27.2565 91,-26.0654 91,-22 91,-18.6333 75.6873,-17.2379 59.1126,-17.8136"/>
<polygon fill="black" stroke="black" points="58.5307,-14.3419 48.7551,-18.4269 58.9445,-21.3296 58.5307,-14.3419"/>
<text text-anchor="middle" x="98" y="-18.3" font-family="Times,serif" font-size="14.00">{}</text>
</g>
<!-- 2&#45;&gt;2 -->
<g id="edge12" class="edge"><title>2&#45;&gt;2</title>
<path fill="none" stroke="black" d="M48.8431,-26.6431C75.783,-30.1512 109,-28.6035 109,-22 109,-16.1961 83.3407,-14.2978 58.8359,-16.3049"/>
<polygon fill="black" stroke="black" points="58.4217,-12.8291 48.8431,-17.3569 59.1546,-19.7906 58.4217,-12.8291"/>
<text text-anchor="middle" x="120.5" y="-18.3" font-family="Times,serif" font-size="14.00">{B}</text>
</g>
<!-- 2&#45;&gt;2 -->
<g id="edge13" class="edge"><title>2&#45;&gt;2</title>
<path fill="none" stroke="black" d="M48.5781,-27.2978C83.602,-33.0872 132,-31.3213 132,-22 132,-13.5526 92.2513,-11.3103 58.7303,-15.2731"/>
<polygon fill="black" stroke="black" points="57.9926,-11.8424 48.5781,-16.7022 58.9684,-18.774 57.9926,-11.8424"/>
<text text-anchor="middle" x="152" y="-18.3" font-family="Times,serif" font-size="14.00">{B, A}</text>
</g>
</g>
</svg>
