<?xml version="1.0" encoding="UTF-8" standalone="no"?>
<!DOCTYPE svg PUBLIC "-//W3C//DTD SVG 1.1//EN"
 "http://www.w3.org/Graphics/SVG/1.1/DTD/svg11.dtd">
<!-- Generated by graphviz version 2.38.0 (20140413.2041)
 -->
<!-- Title: %3 Pages: 1 -->
<svg width="351pt" height="386pt"
 viewBox="0.00 0.00 351.37 386.00" xmlns="http://www.w3.org/2000/svg" xmlns:xlink="http://www.w3.org/1999/xlink">
<g id="graph0" class="graph" transform="scale(1 1) rotate(0) translate(4 382)">
<title>%3</title>
<polygon fill="white" stroke="none" points="-4,4 -4,-382 347.369,-382 347.369,4 -4,4"/>
<!-- fake -->
<g id="node1" class="node"><title>fake</title>
</g>
<!-- 0 -->
<g id="node2" class="node"><title>0</title>
<ellipse fill="none" stroke="black" cx="152.369" cy="-287" rx="27" ry="18"/>
<text text-anchor="middle" x="152.369" y="-283.3" font-family="Times,serif" font-size="14.00">0</text>
</g>
<!-- fake&#45;&gt;0 -->
<g id="edge1" class="edge"><title>fake&#45;&gt;0</title>
<path fill="none" stroke="black" stroke-width="2" d="M152.369,-341.813C152.369,-333.789 152.369,-324.047 152.369,-315.069"/>
<polygon fill="black" stroke="black" stroke-width="2" points="155.869,-315.029 152.369,-305.029 148.869,-315.029 155.869,-315.029"/>
</g>
<!-- 0&#45;&gt;0 -->
<g id="edge2" class="edge"><title>0&#45;&gt;0</title>
<path fill="none" stroke="black" d="M177.813,-293.691C188.397,-294.152 197.369,-291.922 197.369,-287 197.369,-283.77 193.505,-281.699 187.857,-280.788"/>
<polygon fill="black" stroke="black" points="187.968,-277.289 177.813,-280.309 187.635,-284.281 187.968,-277.289"/>
<text text-anchor="middle" x="222.369" y="-283.3" font-family="Times,serif" font-size="14.00">!get_iron</text>
</g>
<!-- 1 -->
<g id="node3" class="node"><title>1</title>
<ellipse fill="none" stroke="black" cx="86.3691" cy="-200" rx="27" ry="18"/>
<text text-anchor="middle" x="86.3691" y="-196.3" font-family="Times,serif" font-size="14.00">1</text>
</g>
<!-- 0&#45;&gt;1 -->
<g id="edge3" class="edge"><title>0&#45;&gt;1</title>
<path fill="none" stroke="black" d="M127.071,-280.078C111.831,-275.067 93.6342,-266.189 84.3691,-251 80.2169,-244.193 79.2991,-235.84 79.8302,-227.925"/>
<polygon fill="black" stroke="black" points="83.3083,-228.323 81.2128,-217.938 76.3744,-227.363 83.3083,-228.323"/>
<text text-anchor="middle" x="107.369" y="-239.8" font-family="Times,serif" font-size="14.00">get_iron</text>
</g>
<!-- 1&#45;&gt;0 -->
<g id="edge4" class="edge"><title>1&#45;&gt;0</title>
<path fill="none" stroke="black" d="M105.252,-212.908C113.775,-219.005 123.457,-227.032 130.369,-236 135.802,-243.049 140.208,-251.649 143.61,-259.715"/>
<polygon fill="black" stroke="black" points="140.389,-261.089 147.264,-269.15 146.917,-258.561 140.389,-261.089"/>
<text text-anchor="middle" x="163.369" y="-239.8" font-family="Times,serif" font-size="14.00">!get_iron</text>
</g>
<!-- 1&#45;&gt;1 -->
<g id="edge5" class="edge"><title>1&#45;&gt;1</title>
<path fill="none" stroke="black" d="M110.902,-207.752C121.877,-208.49 131.369,-205.906 131.369,-200 131.369,-196.032 127.084,-193.563 120.943,-192.594"/>
<polygon fill="black" stroke="black" points="121.016,-189.095 110.902,-192.248 120.775,-196.091 121.016,-189.095"/>
<text text-anchor="middle" x="154.369" y="-196.3" font-family="Times,serif" font-size="14.00">get_iron</text>
</g>
<!-- 2 -->
<g id="node4" class="node"><title>2</title>
<ellipse fill="none" stroke="black" cx="144.369" cy="-113" rx="27" ry="18"/>
<text text-anchor="middle" x="144.369" y="-109.3" font-family="Times,serif" font-size="14.00">2</text>
</g>
<!-- 1&#45;&gt;2 -->
<g id="edge6" class="edge"><title>1&#45;&gt;2</title>
<path fill="none" stroke="black" d="M60.7627,-193.873C30.5588,-186.663 -13.4343,-171.802 4.3691,-149 16.9826,-132.845 70.6609,-123.043 107.76,-118.073"/>
<polygon fill="black" stroke="black" points="108.261,-121.537 117.736,-116.798 107.373,-114.594 108.261,-121.537"/>
<text text-anchor="middle" x="63.3691" y="-152.8" font-family="Times,serif" font-size="14.00">get_iron &amp; get_wood</text>
</g>
<!-- 2&#45;&gt;0 -->
<g id="edge7" class="edge"><title>2&#45;&gt;0</title>
<path fill="none" stroke="black" d="M166.117,-123.943C176.044,-129.728 186.807,-138.06 192.369,-149 212.915,-189.41 211.102,-209.718 192.369,-251 189.5,-257.323 184.861,-262.953 179.741,-267.751"/>
<polygon fill="black" stroke="black" points="177.484,-265.076 172.046,-274.169 181.967,-270.452 177.484,-265.076"/>
<text text-anchor="middle" x="231.369" y="-196.3" font-family="Times,serif" font-size="14.00">!get_iron</text>
</g>
<!-- 2&#45;&gt;1 -->
<g id="edge8" class="edge"><title>2&#45;&gt;1</title>
<path fill="none" stroke="black" d="M138.738,-131.055C134.965,-141.138 129.401,-153.874 122.369,-164 118.865,-169.045 114.563,-173.965 110.166,-178.446"/>
<polygon fill="black" stroke="black" points="107.592,-176.066 102.804,-185.518 112.441,-181.115 107.592,-176.066"/>
<text text-anchor="middle" x="159.369" y="-152.8" font-family="Times,serif" font-size="14.00">!get_wood</text>
</g>
<!-- 2&#45;&gt;2 -->
<g id="edge9" class="edge"><title>2&#45;&gt;2</title>
<path fill="none" stroke="black" d="M168.902,-120.752C179.877,-121.49 189.369,-118.906 189.369,-113 189.369,-109.032 185.084,-106.563 178.943,-105.594"/>
<polygon fill="black" stroke="black" points="179.016,-102.095 168.902,-105.248 178.775,-109.091 179.016,-102.095"/>
<text text-anchor="middle" x="248.369" y="-109.3" font-family="Times,serif" font-size="14.00">get_iron &amp; get_wood</text>
</g>
<!-- 3 -->
<g id="node5" class="node"><title>3</title>
<ellipse fill="none" stroke="black" cx="144.369" cy="-22" rx="18" ry="18"/>
<ellipse fill="none" stroke="black" cx="144.369" cy="-22" rx="22" ry="22"/>
<text text-anchor="middle" x="144.369" y="-18.3" font-family="Times,serif" font-size="14.00">3</text>
</g>
<!-- 2&#45;&gt;3 -->
<g id="edge10" class="edge"><title>2&#45;&gt;3</title>
<path fill="none" stroke="black" d="M144.369,-94.8399C144.369,-83.4407 144.369,-68.1336 144.369,-54.5781"/>
<polygon fill="black" stroke="black" points="147.869,-54.1905 144.369,-44.1905 140.869,-54.1906 147.869,-54.1905"/>
<text text-anchor="middle" x="243.869" y="-65.8" font-family="Times,serif" font-size="14.00">get_iron &amp; use_factory &amp; get_wood</text>
</g>
<!-- 3&#45;&gt;3 -->
<g id="edge11" class="edge"><title>3&#45;&gt;3</title>
<path fill="none" stroke="black" d="M164.95,-30.3702C175.214,-31.5284 184.369,-28.7383 184.369,-22 184.369,-17.6833 180.612,-14.9869 175.213,-13.9109"/>
<polygon fill="black" stroke="black" points="175.042,-10.405 164.95,-13.6298 174.85,-17.4024 175.042,-10.405"/>
<text text-anchor="middle" x="195.369" y="-18.3" font-family="Times,serif" font-size="14.00">true</text>
</g>
</g>
</svg>
