<?xml version="1.0" encoding="UTF-8" standalone="no"?>
<!DOCTYPE svg PUBLIC "-//W3C//DTD SVG 1.1//EN"
 "http://www.w3.org/Graphics/SVG/1.1/DTD/svg11.dtd">
<!-- Generated by graphviz version 2.38.0 (20140413.2041)
 -->
<!-- Title: %3 Pages: 1 -->
<svg width="108pt" height="734pt"
 viewBox="0.00 0.00 108.00 734.00" xmlns="http://www.w3.org/2000/svg" xmlns:xlink="http://www.w3.org/1999/xlink">
<g id="graph0" class="graph" transform="scale(1 1) rotate(0) translate(4 730)">
<title>%3</title>
<polygon fill="white" stroke="none" points="-4,4 -4,-730 104,-730 104,4 -4,4"/>
<!-- fake -->
<g id="node1" class="node"><title>fake</title>
</g>
<!-- 0 -->
<g id="node2" class="node"><title>0</title>
<ellipse fill="none" stroke="black" cx="27" cy="-635" rx="27" ry="18"/>
<text text-anchor="middle" x="27" y="-631.3" font-family="Times,serif" font-size="14.00">0</text>
</g>
<!-- fake&#45;&gt;0 -->
<g id="edge1" class="edge"><title>fake&#45;&gt;0</title>
<path fill="none" stroke="black" stroke-width="2" d="M27,-689.813C27,-681.789 27,-672.047 27,-663.069"/>
<polygon fill="black" stroke="black" stroke-width="2" points="30.5001,-663.029 27,-653.029 23.5001,-663.029 30.5001,-663.029"/>
</g>
<!-- 0&#45;&gt;0 -->
<g id="edge3" class="edge"><title>0&#45;&gt;0</title>
<path fill="none" stroke="black" d="M52.4435,-641.691C63.0278,-642.152 72,-639.922 72,-635 72,-631.77 68.136,-629.699 62.4881,-628.788"/>
<polygon fill="black" stroke="black" points="62.5987,-625.289 52.4435,-628.309 62.2656,-632.281 62.5987,-625.289"/>
<text text-anchor="middle" x="83" y="-631.3" font-family="Times,serif" font-size="14.00">!bip</text>
</g>
<!-- 1 -->
<g id="node3" class="node"><title>1</title>
<ellipse fill="none" stroke="black" cx="27" cy="-548" rx="27" ry="18"/>
<text text-anchor="middle" x="27" y="-544.3" font-family="Times,serif" font-size="14.00">1</text>
</g>
<!-- 0&#45;&gt;1 -->
<g id="edge2" class="edge"><title>0&#45;&gt;1</title>
<path fill="none" stroke="black" d="M27,-616.799C27,-605.163 27,-589.548 27,-576.237"/>
<polygon fill="black" stroke="black" points="30.5001,-576.175 27,-566.175 23.5001,-576.175 30.5001,-576.175"/>
<text text-anchor="middle" x="55" y="-587.8" font-family="Times,serif" font-size="14.00">{red, bip}</text>
</g>
<!-- 1&#45;&gt;1 -->
<g id="edge5" class="edge"><title>1&#45;&gt;1</title>
<path fill="none" stroke="black" d="M51.5325,-555.752C62.5078,-556.49 72,-553.906 72,-548 72,-544.032 67.7151,-541.563 61.5743,-540.594"/>
<polygon fill="black" stroke="black" points="61.6472,-537.095 51.5325,-540.248 61.4059,-544.091 61.6472,-537.095"/>
<text text-anchor="middle" x="83" y="-544.3" font-family="Times,serif" font-size="14.00">!bip</text>
</g>
<!-- 2 -->
<g id="node4" class="node"><title>2</title>
<ellipse fill="none" stroke="black" cx="27" cy="-461" rx="27" ry="18"/>
<text text-anchor="middle" x="27" y="-457.3" font-family="Times,serif" font-size="14.00">2</text>
</g>
<!-- 1&#45;&gt;2 -->
<g id="edge4" class="edge"><title>1&#45;&gt;2</title>
<path fill="none" stroke="black" d="M27,-529.799C27,-518.163 27,-502.548 27,-489.237"/>
<polygon fill="black" stroke="black" points="30.5001,-489.175 27,-479.175 23.5001,-489.175 30.5001,-489.175"/>
<text text-anchor="middle" x="61.5" y="-500.8" font-family="Times,serif" font-size="14.00">{bip, green}</text>
</g>
<!-- 2&#45;&gt;2 -->
<g id="edge7" class="edge"><title>2&#45;&gt;2</title>
<path fill="none" stroke="black" d="M51.5325,-468.752C62.5078,-469.49 72,-466.906 72,-461 72,-457.032 67.7151,-454.563 61.5743,-453.594"/>
<polygon fill="black" stroke="black" points="61.6472,-450.095 51.5325,-453.248 61.4059,-457.091 61.6472,-450.095"/>
<text text-anchor="middle" x="83" y="-457.3" font-family="Times,serif" font-size="14.00">!bip</text>
</g>
<!-- 3 -->
<g id="node5" class="node"><title>3</title>
<ellipse fill="none" stroke="black" cx="27" cy="-374" rx="27" ry="18"/>
<text text-anchor="middle" x="27" y="-370.3" font-family="Times,serif" font-size="14.00">3</text>
</g>
<!-- 2&#45;&gt;3 -->
<g id="edge6" class="edge"><title>2&#45;&gt;3</title>
<path fill="none" stroke="black" d="M27,-442.799C27,-431.163 27,-415.548 27,-402.237"/>
<polygon fill="black" stroke="black" points="30.5001,-402.175 27,-392.175 23.5001,-402.175 30.5001,-402.175"/>
<text text-anchor="middle" x="58" y="-413.8" font-family="Times,serif" font-size="14.00">{blue, bip}</text>
</g>
<!-- 3&#45;&gt;3 -->
<g id="edge9" class="edge"><title>3&#45;&gt;3</title>
<path fill="none" stroke="black" d="M51.5325,-381.752C62.5078,-382.49 72,-379.906 72,-374 72,-370.032 67.7151,-367.563 61.5743,-366.594"/>
<polygon fill="black" stroke="black" points="61.6472,-363.095 51.5325,-366.248 61.4059,-370.091 61.6472,-363.095"/>
<text text-anchor="middle" x="83" y="-370.3" font-family="Times,serif" font-size="14.00">!bip</text>
</g>
<!-- 4 -->
<g id="node6" class="node"><title>4</title>
<ellipse fill="none" stroke="black" cx="27" cy="-287" rx="27" ry="18"/>
<text text-anchor="middle" x="27" y="-283.3" font-family="Times,serif" font-size="14.00">4</text>
</g>
<!-- 3&#45;&gt;4 -->
<g id="edge8" class="edge"><title>3&#45;&gt;4</title>
<path fill="none" stroke="black" d="M27,-355.799C27,-344.163 27,-328.548 27,-315.237"/>
<polygon fill="black" stroke="black" points="30.5001,-315.175 27,-305.175 23.5001,-315.175 30.5001,-315.175"/>
<text text-anchor="middle" x="58.5" y="-326.8" font-family="Times,serif" font-size="14.00">{bip, pink}</text>
</g>
<!-- 4&#45;&gt;4 -->
<g id="edge10" class="edge"><title>4&#45;&gt;4</title>
<path fill="none" stroke="black" d="M51.5325,-294.752C62.5078,-295.49 72,-292.906 72,-287 72,-283.032 67.7151,-280.563 61.5743,-279.594"/>
<polygon fill="black" stroke="black" points="61.6472,-276.095 51.5325,-279.248 61.4059,-283.091 61.6472,-276.095"/>
<text text-anchor="middle" x="83" y="-283.3" font-family="Times,serif" font-size="14.00">!bip</text>
</g>
<!-- 5 -->
<g id="node7" class="node"><title>5</title>
<ellipse fill="none" stroke="black" cx="27" cy="-200" rx="27" ry="18"/>
<text text-anchor="middle" x="27" y="-196.3" font-family="Times,serif" font-size="14.00">5</text>
</g>
<!-- 4&#45;&gt;5 -->
<g id="edge11" class="edge"><title>4&#45;&gt;5</title>
<path fill="none" stroke="black" d="M27,-268.799C27,-257.163 27,-241.548 27,-228.237"/>
<polygon fill="black" stroke="black" points="30.5001,-228.175 27,-218.175 23.5001,-228.175 30.5001,-228.175"/>
<text text-anchor="middle" x="63.5" y="-239.8" font-family="Times,serif" font-size="14.00">{brown, bip}</text>
</g>
<!-- 5&#45;&gt;5 -->
<g id="edge12" class="edge"><title>5&#45;&gt;5</title>
<path fill="none" stroke="black" d="M51.5325,-207.752C62.5078,-208.49 72,-205.906 72,-200 72,-196.032 67.7151,-193.563 61.5743,-192.594"/>
<polygon fill="black" stroke="black" points="61.6472,-189.095 51.5325,-192.248 61.4059,-196.091 61.6472,-189.095"/>
<text text-anchor="middle" x="83" y="-196.3" font-family="Times,serif" font-size="14.00">!bip</text>
</g>
<!-- 6 -->
<g id="node8" class="node"><title>6</title>
<ellipse fill="none" stroke="black" cx="27" cy="-113" rx="27" ry="18"/>
<text text-anchor="middle" x="27" y="-109.3" font-family="Times,serif" font-size="14.00">6</text>
</g>
<!-- 5&#45;&gt;6 -->
<g id="edge13" class="edge"><title>5&#45;&gt;6</title>
<path fill="none" stroke="black" d="M27,-181.799C27,-170.163 27,-154.548 27,-141.237"/>
<polygon fill="black" stroke="black" points="30.5001,-141.175 27,-131.175 23.5001,-141.175 30.5001,-141.175"/>
<text text-anchor="middle" x="58.5" y="-152.8" font-family="Times,serif" font-size="14.00">{gray, bip}</text>
</g>
<!-- 6&#45;&gt;6 -->
<g id="edge14" class="edge"><title>6&#45;&gt;6</title>
<path fill="none" stroke="black" d="M51.5325,-120.752C62.5078,-121.49 72,-118.906 72,-113 72,-109.032 67.7151,-106.563 61.5743,-105.594"/>
<polygon fill="black" stroke="black" points="61.6472,-102.095 51.5325,-105.248 61.4059,-109.091 61.6472,-102.095"/>
<text text-anchor="middle" x="83" y="-109.3" font-family="Times,serif" font-size="14.00">!bip</text>
</g>
<!-- 7 -->
<g id="node9" class="node"><title>7</title>
<ellipse fill="none" stroke="black" cx="27" cy="-22" rx="18" ry="18"/>
<ellipse fill="none" stroke="black" cx="27" cy="-22" rx="22" ry="22"/>
<text text-anchor="middle" x="27" y="-18.3" font-family="Times,serif" font-size="14.00">7</text>
</g>
<!-- 6&#45;&gt;7 -->
<g id="edge15" class="edge"><title>6&#45;&gt;7</title>
<path fill="none" stroke="black" d="M27,-94.8399C27,-83.4407 27,-68.1336 27,-54.5781"/>
<polygon fill="black" stroke="black" points="30.5001,-54.1905 27,-44.1905 23.5001,-54.1906 30.5001,-54.1905"/>
<text text-anchor="middle" x="63.5" y="-65.8" font-family="Times,serif" font-size="14.00">{purple, bip}</text>
</g>
<!-- 7&#45;&gt;7 -->
<g id="edge16" class="edge"><title>7&#45;&gt;7</title>
<path fill="none" stroke="black" d="M47.5808,-30.3702C57.8447,-31.5284 67,-28.7383 67,-22 67,-17.6833 63.2427,-14.9869 57.8436,-13.9109"/>
<polygon fill="black" stroke="black" points="57.6729,-10.405 47.5808,-13.6298 57.4812,-17.4024 57.6729,-10.405"/>
<text text-anchor="middle" x="78" y="-18.3" font-family="Times,serif" font-size="14.00">true</text>
</g>
</g>
</svg>
