<?xml version="1.0" encoding="UTF-8" standalone="no"?>
<!DOCTYPE svg PUBLIC "-//W3C//DTD SVG 1.1//EN"
 "http://www.w3.org/Graphics/SVG/1.1/DTD/svg11.dtd">
<!-- Generated by graphviz version 2.38.0 (20140413.2041)
 -->
<!-- Title: %3 Pages: 1 -->
<svg width="104pt" height="481pt"
 viewBox="0.00 0.00 104.00 481.00" xmlns="http://www.w3.org/2000/svg" xmlns:xlink="http://www.w3.org/1999/xlink">
<g id="graph0" class="graph" transform="scale(1 1) rotate(0) translate(4 477)">
<title>%3</title>
<polygon fill="white" stroke="none" points="-4,4 -4,-477 100,-477 100,4 -4,4"/>
<!-- fake -->
<g id="node1" class="node"><title>fake</title>
</g>
<!-- 0 -->
<g id="node2" class="node"><title>0</title>
<ellipse fill="none" stroke="black" cx="27" cy="-382" rx="27" ry="18"/>
<text text-anchor="middle" x="27" y="-378.3" font-family="Times,serif" font-size="14.00">0</text>
</g>
<!-- fake&#45;&gt;0 -->
<g id="edge1" class="edge"><title>fake&#45;&gt;0</title>
<path fill="none" stroke="black" stroke-width="2" d="M27,-436.813C27,-428.789 27,-419.047 27,-410.069"/>
<polygon fill="black" stroke="black" stroke-width="2" points="30.5001,-410.029 27,-400.029 23.5001,-410.029 30.5001,-410.029"/>
</g>
<!-- 1 -->
<g id="node3" class="node"><title>1</title>
<ellipse fill="none" stroke="black" cx="27" cy="-295" rx="27" ry="18"/>
<text text-anchor="middle" x="27" y="-291.3" font-family="Times,serif" font-size="14.00">1</text>
</g>
<!-- 0&#45;&gt;1 -->
<g id="edge2" class="edge"><title>0&#45;&gt;1</title>
<path fill="none" stroke="black" d="M27,-363.799C27,-352.163 27,-336.548 27,-323.237"/>
<polygon fill="black" stroke="black" points="30.5001,-323.175 27,-313.175 23.5001,-323.175 30.5001,-323.175"/>
<text text-anchor="middle" x="34" y="-334.8" font-family="Times,serif" font-size="14.00">{}</text>
</g>
<!-- 2 -->
<g id="node4" class="node"><title>2</title>
<ellipse fill="none" stroke="black" cx="27" cy="-208" rx="27" ry="18"/>
<text text-anchor="middle" x="27" y="-204.3" font-family="Times,serif" font-size="14.00">2</text>
</g>
<!-- 1&#45;&gt;2 -->
<g id="edge3" class="edge"><title>1&#45;&gt;2</title>
<path fill="none" stroke="black" d="M27,-276.799C27,-265.163 27,-249.548 27,-236.237"/>
<polygon fill="black" stroke="black" points="30.5001,-236.175 27,-226.175 23.5001,-236.175 30.5001,-236.175"/>
<text text-anchor="middle" x="39" y="-247.8" font-family="Times,serif" font-size="14.00">{A}</text>
</g>
<!-- 2&#45;&gt;2 -->
<g id="edge4" class="edge"><title>2&#45;&gt;2</title>
<path fill="none" stroke="black" d="M51.5325,-215.752C62.5078,-216.49 72,-213.906 72,-208 72,-204.032 67.7151,-201.563 61.5743,-200.594"/>
<polygon fill="black" stroke="black" points="61.6472,-197.095 51.5325,-200.248 61.4059,-204.091 61.6472,-197.095"/>
<text text-anchor="middle" x="84" y="-204.3" font-family="Times,serif" font-size="14.00">{A}</text>
</g>
<!-- 3 -->
<g id="node5" class="node"><title>3</title>
<ellipse fill="none" stroke="black" cx="27" cy="-117" rx="18" ry="18"/>
<ellipse fill="none" stroke="black" cx="27" cy="-117" rx="22" ry="22"/>
<text text-anchor="middle" x="27" y="-113.3" font-family="Times,serif" font-size="14.00">3</text>
</g>
<!-- 2&#45;&gt;3 -->
<g id="edge5" class="edge"><title>2&#45;&gt;3</title>
<path fill="none" stroke="black" d="M27,-189.84C27,-178.441 27,-163.134 27,-149.578"/>
<polygon fill="black" stroke="black" points="30.5001,-149.19 27,-139.191 23.5001,-149.191 30.5001,-149.19"/>
<text text-anchor="middle" x="38.5" y="-160.8" font-family="Times,serif" font-size="14.00">{B}</text>
</g>
<!-- 4 -->
<g id="node6" class="node"><title>4</title>
<ellipse fill="none" stroke="black" cx="27" cy="-22" rx="18" ry="18"/>
<ellipse fill="none" stroke="black" cx="27" cy="-22" rx="22" ry="22"/>
<text text-anchor="middle" x="27" y="-18.3" font-family="Times,serif" font-size="14.00">4</text>
</g>
<!-- 3&#45;&gt;4 -->
<g id="edge6" class="edge"><title>3&#45;&gt;4</title>
<path fill="none" stroke="black" d="M27,-94.8969C27,-82.8873 27,-67.6175 27,-54.242"/>
<polygon fill="black" stroke="black" points="30.5001,-54.0196 27,-44.0196 23.5001,-54.0197 30.5001,-54.0196"/>
<text text-anchor="middle" x="39" y="-65.8" font-family="Times,serif" font-size="14.00">{A}</text>
</g>
</g>
</svg>
