<?xml version="1.0" encoding="UTF-8" standalone="no"?>
<!DOCTYPE svg PUBLIC "-//W3C//DTD SVG 1.1//EN"
 "http://www.w3.org/Graphics/SVG/1.1/DTD/svg11.dtd">
<!-- Generated by graphviz version 2.38.0 (20140413.2041)
 -->
<!-- Title: %3 Pages: 1 -->
<svg width="104pt" height="291pt"
 viewBox="0.00 0.00 104.00 291.00" xmlns="http://www.w3.org/2000/svg" xmlns:xlink="http://www.w3.org/1999/xlink">
<g id="graph0" class="graph" transform="scale(1 1) rotate(0) translate(4 287)">
<title>%3</title>
<polygon fill="white" stroke="none" points="-4,4 -4,-287 100,-287 100,4 -4,4"/>
<!-- fake -->
<g id="node1" class="node"><title>fake</title>
</g>
<!-- 0 -->
<g id="node2" class="node"><title>0</title>
<ellipse fill="none" stroke="black" cx="27" cy="-192" rx="27" ry="18"/>
<text text-anchor="middle" x="27" y="-188.3" font-family="Times,serif" font-size="14.00">0</text>
</g>
<!-- fake&#45;&gt;0 -->
<g id="edge1" class="edge"><title>fake&#45;&gt;0</title>
<path fill="none" stroke="black" stroke-width="2" d="M27,-246.813C27,-238.789 27,-229.047 27,-220.069"/>
<polygon fill="black" stroke="black" stroke-width="2" points="30.5001,-220.029 27,-210.029 23.5001,-220.029 30.5001,-220.029"/>
</g>
<!-- 1 -->
<g id="node3" class="node"><title>1</title>
<ellipse fill="none" stroke="black" cx="27" cy="-105" rx="27" ry="18"/>
<text text-anchor="middle" x="27" y="-101.3" font-family="Times,serif" font-size="14.00">1</text>
</g>
<!-- 0&#45;&gt;1 -->
<g id="edge2" class="edge"><title>0&#45;&gt;1</title>
<path fill="none" stroke="black" d="M27,-173.799C27,-162.163 27,-146.548 27,-133.237"/>
<polygon fill="black" stroke="black" points="30.5001,-133.175 27,-123.175 23.5001,-133.175 30.5001,-133.175"/>
<text text-anchor="middle" x="34" y="-144.8" font-family="Times,serif" font-size="14.00">{}</text>
</g>
<!-- 2 -->
<g id="node4" class="node"><title>2</title>
<ellipse fill="none" stroke="black" cx="27" cy="-18" rx="27" ry="18"/>
<text text-anchor="middle" x="27" y="-14.3" font-family="Times,serif" font-size="14.00">2</text>
</g>
<!-- 1&#45;&gt;2 -->
<g id="edge3" class="edge"><title>1&#45;&gt;2</title>
<path fill="none" stroke="black" d="M27,-86.799C27,-75.1626 27,-59.5479 27,-46.2368"/>
<polygon fill="black" stroke="black" points="30.5001,-46.1754 27,-36.1754 23.5001,-46.1755 30.5001,-46.1754"/>
<text text-anchor="middle" x="39" y="-57.8" font-family="Times,serif" font-size="14.00">{A}</text>
</g>
<!-- 2&#45;&gt;2 -->
<g id="edge4" class="edge"><title>2&#45;&gt;2</title>
<path fill="none" stroke="black" d="M51.5325,-25.752C62.5078,-26.4902 72,-23.9062 72,-18 72,-14.0317 67.7151,-11.5632 61.5743,-10.5944"/>
<polygon fill="black" stroke="black" points="61.6472,-7.09491 51.5325,-10.248 61.4059,-14.0908 61.6472,-7.09491"/>
<text text-anchor="middle" x="84" y="-14.3" font-family="Times,serif" font-size="14.00">{A}</text>
</g>
</g>
</svg>
