<?xml version="1.0" encoding="UTF-8" standalone="no"?>
<!DOCTYPE svg PUBLIC "-//W3C//DTD SVG 1.1//EN"
 "http://www.w3.org/Graphics/SVG/1.1/DTD/svg11.dtd">
<!-- Generated by graphviz version 2.38.0 (20140413.2041)
 -->
<!-- Title: %3 Pages: 1 -->
<svg width="104pt" height="386pt"
 viewBox="0.00 0.00 104.00 386.00" xmlns="http://www.w3.org/2000/svg" xmlns:xlink="http://www.w3.org/1999/xlink">
<g id="graph0" class="graph" transform="scale(1 1) rotate(0) translate(4 382)">
<title>%3</title>
<polygon fill="white" stroke="none" points="-4,4 -4,-382 100,-382 100,4 -4,4"/>
<!-- fake -->
<g id="node1" class="node"><title>fake</title>
</g>
<!-- 0 -->
<g id="node2" class="node"><title>0</title>
<ellipse fill="none" stroke="black" cx="27" cy="-287" rx="27" ry="18"/>
<text text-anchor="middle" x="27" y="-283.3" font-family="Times,serif" font-size="14.00">0</text>
</g>
<!-- fake&#45;&gt;0 -->
<g id="edge1" class="edge"><title>fake&#45;&gt;0</title>
<path fill="none" stroke="black" stroke-width="2" d="M27,-341.813C27,-333.789 27,-324.047 27,-315.069"/>
<polygon fill="black" stroke="black" stroke-width="2" points="30.5001,-315.029 27,-305.029 23.5001,-315.029 30.5001,-315.029"/>
</g>
<!-- 1 -->
<g id="node3" class="node"><title>1</title>
<ellipse fill="none" stroke="black" cx="27" cy="-200" rx="27" ry="18"/>
<text text-anchor="middle" x="27" y="-196.3" font-family="Times,serif" font-size="14.00">1</text>
</g>
<!-- 0&#45;&gt;1 -->
<g id="edge2" class="edge"><title>0&#45;&gt;1</title>
<path fill="none" stroke="black" d="M27,-268.799C27,-257.163 27,-241.548 27,-228.237"/>
<polygon fill="black" stroke="black" points="30.5001,-228.175 27,-218.175 23.5001,-228.175 30.5001,-228.175"/>
<text text-anchor="middle" x="34" y="-239.8" font-family="Times,serif" font-size="14.00">{}</text>
</g>
<!-- 2 -->
<g id="node4" class="node"><title>2</title>
<ellipse fill="none" stroke="black" cx="27" cy="-113" rx="27" ry="18"/>
<text text-anchor="middle" x="27" y="-109.3" font-family="Times,serif" font-size="14.00">2</text>
</g>
<!-- 1&#45;&gt;2 -->
<g id="edge3" class="edge"><title>1&#45;&gt;2</title>
<path fill="none" stroke="black" d="M27,-181.799C27,-170.163 27,-154.548 27,-141.237"/>
<polygon fill="black" stroke="black" points="30.5001,-141.175 27,-131.175 23.5001,-141.175 30.5001,-141.175"/>
<text text-anchor="middle" x="39" y="-152.8" font-family="Times,serif" font-size="14.00">{A}</text>
</g>
<!-- 2&#45;&gt;2 -->
<g id="edge4" class="edge"><title>2&#45;&gt;2</title>
<path fill="none" stroke="black" d="M51.5325,-120.752C62.5078,-121.49 72,-118.906 72,-113 72,-109.032 67.7151,-106.563 61.5743,-105.594"/>
<polygon fill="black" stroke="black" points="61.6472,-102.095 51.5325,-105.248 61.4059,-109.091 61.6472,-102.095"/>
<text text-anchor="middle" x="84" y="-109.3" font-family="Times,serif" font-size="14.00">{A}</text>
</g>
<!-- 3 -->
<g id="node5" class="node"><title>3</title>
<ellipse fill="none" stroke="black" cx="27" cy="-22" rx="18" ry="18"/>
<ellipse fill="none" stroke="black" cx="27" cy="-22" rx="22" ry="22"/>
<text text-anchor="middle" x="27" y="-18.3" font-family="Times,serif" font-size="14.00">3</text>
</g>
<!-- 2&#45;&gt;3 -->
<g id="edge5" class="edge"><title>2&#45;&gt;3</title>
<path fill="none" stroke="black" d="M27,-94.8399C27,-83.4407 27,-68.1336 27,-54.5781"/>
<polygon fill="black" stroke="black" points="30.5001,-54.1905 27,-44.1905 23.5001,-54.1906 30.5001,-54.1905"/>
<text text-anchor="middle" x="38.5" y="-65.8" font-family="Times,serif" font-size="14.00">{B}</text>
</g>
</g>
</svg>
